<?xml version="1.0" standalone="no"?>
<!DOCTYPE svg PUBLIC "-//W3C//DTD SVG 20010904//EN"
 "http://www.w3.org/TR/2001/REC-SVG-20010904/DTD/svg10.dtd">
<svg version="1.0" xmlns="http://www.w3.org/2000/svg"
 width="2500.000000pt" height="158.000000pt" viewBox="0 0 2500.000000 158.000000"
 preserveAspectRatio="xMidYMid meet">
<metadata>
Created by potrace 1.15, written by Peter Selinger 2001-2017
</metadata>
<g transform="translate(0.000000,158.000000) scale(0.100000,-0.100000)"
fill="none" stroke="none">
<path d="M5773 1273 c-60 -4 -63 -5 -63 -30 l0 -26 77 7 c42 3 127 6 190 6
113 0 114 0 111 23 -3 21 -6 22 -128 23 -69 0 -153 -1 -187 -3z" fill="none" stroke="#9999F8" stroke-width="60px"  />
<path d="M6170 1255 c0 -24 3 -25 63 -25 34 0 106 -3 160 -7 l97 -6 0 25 c0
24 -2 25 -97 31 -54 4 -126 7 -160 7 -61 0 -63 -1 -63 -25z" fill="none" stroke="#9999F8" stroke-width="60px"  />
<path d="M6570 1244 c0 -28 8 -31 145 -39 55 -3 140 -11 188 -16 49 -6 91 -8
94 -6 2 3 0 14 -6 25 -13 24 -36 28 -211 42 -74 6 -152 12 -172 14 -34 4 -38
2 -38 -20z" fill="none" stroke="#9999F8" stroke-width="60px"  />
<path d="M14098 1263 c-76 -3 -89 -6 -99 -24 -6 -12 -8 -23 -6 -26 3 -2 89 -1
191 3 l186 7 0 23 c0 24 -1 24 -92 22 -51 -1 -132 -4 -180 -5z" fill="none" stroke="#9999F8" stroke-width="60px"  />
<path d="M14870 1241 c0 -11 4 -22 9 -25 5 -4 67 -10 138 -16 70 -5 152 -12
181 -16 50 -5 52 -5 52 20 0 22 -5 25 -52 30 -49 6 -300 26 -319 26 -5 0 -9
-9 -9 -19z" fill="none" stroke="#9999F8" stroke-width="60px"  />
<path d="M13750 1244 c-14 -2 -64 -6 -112 -9 -86 -7 -88 -7 -88 -32 0 -25 1
-26 53 -20 28 3 109 9 180 13 125 7 127 7 127 30 0 23 -3 24 -67 23 -38 -1
-79 -3 -93 -5z" fill="none" stroke="#9999F8" stroke-width="60px"  />
<path d="M22415 1220 c-82 -4 -162 -8 -177 -9 -30 -1 -37 -21 -15 -39 11 -9
362 0 372 10 8 8 -8 48 -19 46 -6 -1 -78 -5 -161 -8z" fill="none" stroke="#9999F8" stroke-width="60px"  />
<path d="M22710 1205 l0 -25 180 0 180 0 0 25 0 25 -180 0 -180 0 0 -25z" fill="none" stroke="#9999F8" stroke-width="60px"  />
<path d="M7090 1199 c0 -28 20 -35 161 -58 75 -12 146 -25 157 -28 18 -4 22
-1 22 20 0 31 0 30 -155 56 -186 30 -185 30 -185 10z" fill="none" stroke="#9999F8" stroke-width="60px"  />
<path d="M13395 1215 c-5 -2 -70 -9 -143 -15 -128 -12 -132 -13 -126 -34 4
-11 8 -22 9 -24 4 -4 328 28 333 33 2 2 1 13 -3 24 -6 20 -38 27 -70 16z" fill="none" stroke="#9999F8" stroke-width="60px"  />
<path d="M15330 1195 c0 -14 6 -25 13 -25 6 0 70 -9 141 -20 71 -11 133 -20
137 -20 5 0 9 11 9 25 0 14 -1 25 -2 25 -2 0 -64 9 -138 20 -169 25 -160 25
-160 -5z" fill="none" stroke="#9999F8" stroke-width="60px"  />
<path d="M23150 1197 c0 -24 2 -24 133 -31 72 -3 162 -9 200 -13 68 -6 77 -2
53 29 -10 14 -40 19 -141 28 -70 5 -154 10 -186 10 -55 0 -59 -2 -59 -23z" fill="none" stroke="#9999F8" stroke-width="60px"  />
<path d="M21905 1188 c-132 -10 -135 -11 -135 -40 l0 -23 128 12 c70 6 151 12
180 12 49 1 52 3 52 26 0 24 -2 25 -57 24 -32 -1 -107 -6 -168 -11z" fill="none" stroke="#9999F8" stroke-width="60px"  />
<path d="M23630 1166 c0 -22 5 -25 43 -30 145 -19 274 -38 289 -42 20 -6 36
35 18 46 -6 4 -71 15 -143 24 -73 9 -149 19 -169 22 -35 5 -38 4 -38 -20z" fill="none" stroke="#9999F8" stroke-width="60px"  />
<path d="M12750 1139 c-272 -38 -262 -35 -240 -69 8 -12 40 -10 242 18 128 18
243 32 256 32 25 0 26 3 12 31 -13 24 -17 24 -270 -12z" fill="none" stroke="#9999F8" stroke-width="60px"  />
<path d="M21520 1148 c-213 -23 -210 -23 -210 -54 0 -19 4 -24 18 -20 9 2 91
13 182 22 91 10 169 21 173 25 5 3 7 15 5 26 -3 19 -6 19 -168 1z" fill="none" stroke="#9999F8" stroke-width="60px"  />
<path d="M24072 1103 c3 -26 7 -28 138 -54 74 -16 145 -31 158 -34 21 -5 23
-3 20 22 -3 27 -6 28 -128 53 -214 45 -192 44 -188 13z" fill="none" stroke="#9999F8" stroke-width="60px"  />
<path d="M21060 1089 c-189 -27 -190 -27 -190 -49 0 -10 3 -21 8 -23 7 -5 344
42 350 48 7 7 -19 45 -31 44 -7 -1 -68 -10 -137 -20z" fill="none" stroke="#9999F8" stroke-width="60px"  />
<path d="M3542 1012 c-134 -24 -142 -26 -136 -46 4 -12 8 -23 10 -25 3 -3 306
49 312 55 2 1 1 12 -3 23 -8 25 -4 25 -183 -7z" fill="none" stroke="#9999F8" stroke-width="60px"  />
<path d="M20563 1012 c-145 -25 -153 -27 -153 -49 0 -13 6 -23 13 -23 14 0
350 53 355 56 2 1 1 12 -3 23 -8 26 -19 26 -212 -7z" fill="none" stroke="#9999F8" stroke-width="60px"  />
<path d="M11905 1004 c-71 -13 -145 -26 -162 -29 -27 -5 -33 -11 -33 -30 0
-14 3 -25 7 -25 15 0 348 62 351 65 8 8 -10 45 -21 44 -7 0 -70 -12 -142 -25z" fill="none" stroke="#9999F8" stroke-width="60px"  />
<path d="M20230 955 c-36 -7 -109 -21 -162 -30 -92 -16 -98 -19 -98 -41 0 -13
6 -24 13 -24 25 0 340 60 346 65 7 7 -12 38 -25 41 -5 1 -38 -4 -74 -11z" fill="none" stroke="#9999F8" stroke-width="60px"  />
<path d="M11440 919 c-80 -15 -146 -28 -147 -29 -2 0 -3 -11 -3 -25 0 -14 1
-25 3 -25 1 0 73 14 161 30 87 17 162 30 167 30 5 0 9 11 9 25 0 31 -2 31
-190 -6z" fill="none" stroke="#9999F8" stroke-width="60px"  />
<path d="M8234 906 c-10 -8 -17 -16 -14 -19 4 -4 154 -95 251 -153 4 -2 14 5
23 15 17 18 12 22 -109 95 -69 42 -127 76 -129 76 -1 0 -11 -6 -22 -14z" fill="none" stroke="#9999F8" stroke-width="60px"  />
<path d="M19678 853 c-121 -24 -128 -26 -128 -49 0 -13 3 -24 8 -24 23 0 298
54 305 60 4 4 5 14 1 23 -8 22 -30 21 -186 -10z" fill="none" stroke="#9999F8" stroke-width="60px"  />
<path d="M10943 827 c-117 -23 -213 -46 -213 -52 1 -39 13 -38 249 6 222 41
231 44 231 66 0 30 -7 30 -267 -20z" fill="none" stroke="#9999F8" stroke-width="60px"  />
<path d="M2248 772 c-130 -24 -138 -27 -138 -49 0 -14 6 -23 16 -23 14 0 306
51 311 54 1 1 0 12 -4 24 -7 27 -10 27 -185 -6z" fill="none" stroke="#9999F8" stroke-width="60px"  />
<path d="M19165 757 c-115 -22 -212 -42 -214 -44 -3 -2 4 -12 15 -23 19 -20
20 -20 204 15 312 59 291 54 280 76 -14 26 -35 24 -285 -24z" fill="none" stroke="#9999F8" stroke-width="60px"  />
<path d="M10091 674 c-80 -13 -146 -25 -147 -27 -2 -2 -1 -13 3 -26 4 -17 11
-21 27 -18 11 3 87 16 169 28 141 22 147 24 147 46 0 29 -8 29 -199 -3z" fill="none" stroke="#9999F8" stroke-width="60px"  />
<path d="M18660 665 c-185 -33 -199 -39 -169 -69 5 -6 71 1 171 18 217 37 208
34 208 62 0 13 -6 23 -12 23 -7 -1 -96 -16 -198 -34z" fill="none" stroke="#9999F8" stroke-width="60px"  />
<path d="M8565 660 c-16 -18 -15 -19 12 -33 73 -37 279 -87 359 -87 29 0 34 3
34 24 0 21 -5 24 -67 30 -81 8 -219 41 -279 66 -41 18 -43 18 -59 0z" fill="none" stroke="#9999F8" stroke-width="60px"  />
<path d="M9715 619 c-71 -10 -151 -18 -177 -18 -41 -1 -48 -4 -48 -21 0 -11 7
-23 17 -27 17 -7 320 25 339 36 6 3 8 15 5 26 -6 20 -7 20 -136 4z" fill="none" stroke="#9999F8" stroke-width="60px"  />
<path d="M470 587 c0 -24 4 -26 68 -33 37 -4 112 -8 167 -8 94 -1 100 0 103
20 3 20 -3 21 -115 27 -65 4 -142 10 -170 13 -52 7 -53 6 -53 -19z" fill="none" stroke="#9999F8" stroke-width="60px"  />
<path d="M18130 584 c-91 -12 -186 -23 -212 -23 -44 -1 -48 -3 -48 -26 0 -22
4 -25 38 -25 39 0 407 45 451 55 22 6 23 7 6 25 -21 24 -24 24 -235 -6z" fill="none" stroke="#9999F8" stroke-width="60px"  />
<path d="M9198 583 l-148 -4 0 -25 0 -26 164 3 c90 2 167 7 171 11 10 9 -14
48 -28 46 -7 -1 -78 -4 -159 -5z" fill="none" stroke="#9999F8" stroke-width="60px"  />
</g>
</svg>
