<svg width="86" height="86" viewBox="0 0 86 86" fill="none" xmlns="http://www.w3.org/2000/svg">
<g clip-path="url(#clip0_22_296)">
<path d="M21.5 35.8333C17.5583 35.8333 14.3333 39.0583 14.3333 43C14.3333 46.9417 17.5583 50.1667 21.5 50.1667C25.4416 50.1667 28.6666 46.9417 28.6666 43C28.6666 39.0583 25.4416 35.8333 21.5 35.8333ZM64.5 35.8333C60.5583 35.8333 57.3333 39.0583 57.3333 43C57.3333 46.9417 60.5583 50.1667 64.5 50.1667C68.4417 50.1667 71.6666 46.9417 71.6666 43C71.6666 39.0583 68.4417 35.8333 64.5 35.8333ZM43 35.8333C39.0583 35.8333 35.8333 39.0583 35.8333 43C35.8333 46.9417 39.0583 50.1667 43 50.1667C46.9416 50.1667 50.1666 46.9417 50.1666 43C50.1666 39.0583 46.9416 35.8333 43 35.8333Z" fill="white"/>
<path d="M12.304 78.208C12.4 78.208 12.4853 78.2453 12.56 78.32C12.6347 78.3947 12.672 78.4853 12.672 78.592V79.616C12.672 79.7227 12.6347 79.8133 12.56 79.888C12.4853 79.9627 12.4 80 12.304 80C11.3867 80 10.7307 79.6853 10.336 79.056C9.76 79.6853 8.944 80 7.888 80H4.384V78.208H7.6C8.05867 78.208 8.42667 78.0587 8.704 77.76C8.98133 77.4507 9.088 77.0773 9.024 76.64L8.784 75.168C8.72 74.7947 8.55467 74.5013 8.288 74.288C8.032 74.064 7.73333 73.952 7.392 73.952H6.816V72.176H7.392C9.248 72.176 10.288 72.9813 10.512 74.592L10.736 76.176L10.816 76.72C10.8907 77.232 11.04 77.6107 11.264 77.856C11.4987 78.0907 11.8453 78.208 12.304 78.208ZM12.2969 80C12.2009 80 12.1155 79.9627 12.0409 79.888C11.9662 79.8133 11.9289 79.7227 11.9289 79.616V78.592C11.9289 78.4853 11.9662 78.3947 12.0409 78.32C12.1155 78.2453 12.2009 78.208 12.2969 78.208H13.9449C14.8089 78.208 15.2409 77.792 15.2409 76.96V72.64H17.0169V76.96C17.0169 77.9627 16.7715 78.72 16.2809 79.232C15.8009 79.744 15.0169 80 13.9289 80H12.2969ZM12.3129 83.2V81.408H14.0569V83.2H12.3129ZM15.1769 83.2V81.408H16.9209V83.2H15.1769ZM23.0418 69.664V71.504H21.2498V69.664H23.0418ZM24.5138 78.208C24.6098 78.208 24.6951 78.2453 24.7698 78.32C24.8444 78.3947 24.8818 78.4853 24.8818 78.592V79.616C24.8818 79.7227 24.8444 79.8133 24.7698 79.888C24.6951 79.9627 24.6098 80 24.5138 80C23.8738 80 23.3671 79.8613 22.9938 79.584V80.576C22.9938 81.5573 22.7484 82.2827 22.2578 82.752C21.7671 83.2213 21.0044 83.456 19.9698 83.456H17.9857V81.68H19.9698C20.8018 81.68 21.2178 81.2533 21.2178 80.4V72.64H22.9938V76.704C22.9938 77.2267 23.1111 77.6107 23.3458 77.856C23.5911 78.0907 23.9804 78.208 24.5138 78.208ZM34.0676 78.208C34.1636 78.208 34.249 78.2453 34.3236 78.32C34.3983 78.3947 34.4356 78.4853 34.4356 78.592V79.616C34.4356 79.7227 34.3983 79.8133 34.3236 79.888C34.249 79.9627 34.1636 80 34.0676 80C33.065 80 32.377 79.6427 32.0036 78.928C31.449 79.7493 30.6063 80.16 29.4756 80.16L27.0116 79.2C26.4463 79.7333 25.6143 80 24.5156 80C24.4196 80 24.3343 79.9627 24.2596 79.888C24.185 79.8133 24.1476 79.7227 24.1476 79.616V78.592C24.1476 78.4853 24.185 78.3947 24.2596 78.32C24.3343 78.2453 24.4196 78.208 24.5156 78.208C25.5503 78.208 26.0676 77.7547 26.0676 76.848V75.504C26.0676 74.5653 26.3396 73.8293 26.8836 73.296C27.4276 72.752 28.1743 72.48 29.1236 72.48H29.4756C30.4143 72.48 31.1556 72.7413 31.6996 73.264C32.2543 73.7867 32.5316 74.5333 32.5316 75.504V76.704C32.5316 77.2267 32.6543 77.6107 32.8996 77.856C33.145 78.0907 33.5343 78.208 34.0676 78.208ZM30.7716 76.992V75.488C30.7716 75.136 30.649 74.848 30.4036 74.624C30.1583 74.3893 29.8596 74.272 29.5076 74.272H29.1076C28.7556 74.272 28.457 74.3893 28.2116 74.624C27.9663 74.848 27.8436 75.136 27.8436 75.488V76.864C27.8436 77.152 27.817 77.4453 27.7636 77.744L29.4756 78.384C29.8383 78.384 30.1423 78.2613 30.3876 78.016C30.6436 77.76 30.7716 77.4187 30.7716 76.992ZM34.0625 80C33.9665 80 33.8812 79.9627 33.8065 79.888C33.7318 79.8133 33.6945 79.7227 33.6945 79.616V78.592C33.6945 78.4853 33.7318 78.3947 33.8065 78.32C33.8812 78.2453 33.9665 78.208 34.0625 78.208H34.9265C35.7905 78.208 36.2225 77.792 36.2225 76.96V68.608H37.9985V76.96C37.9985 77.9627 37.7532 78.72 37.2625 79.232C36.7825 79.744 35.9932 80 34.8945 80H34.0625ZM40.7354 80V68.608H42.5114V80H40.7354ZM60.8554 69.696V71.536H59.0634V69.696H60.8554ZM62.6794 72.688C63.6287 72.688 64.3647 72.96 64.8874 73.504C65.4207 74.0373 65.6874 74.768 65.6874 75.696V76.96C65.6874 78.9867 64.6847 80 62.6794 80H57.9274V80.336C57.9274 82.4053 56.866 83.44 54.7434 83.44H52.9354C51.826 83.44 50.9727 83.1093 50.3754 82.448C49.7887 81.7867 49.4954 80.9867 49.4954 80.048V77.12H51.2714V79.84C51.2714 80.4267 51.4154 80.8747 51.7034 81.184C52.002 81.504 52.4127 81.664 52.9354 81.664H54.7594C55.6874 81.664 56.1514 81.2213 56.1514 80.336V72.688H62.6794ZM63.9114 76.96V75.68C63.9114 75.3067 63.7994 75.0133 63.5754 74.8C63.3514 74.576 63.0634 74.464 62.7114 74.464H57.9274V78.208H62.7114C63.5114 78.208 63.9114 77.792 63.9114 76.96ZM72.7013 78.208C72.7973 78.208 72.8826 78.2453 72.9573 78.32C73.0319 78.3947 73.0693 78.4853 73.0693 78.592V79.616C73.0693 79.7227 73.0319 79.8133 72.9573 79.888C72.8826 79.9627 72.7973 80 72.7013 80C72.0613 80 71.5546 79.8613 71.1813 79.584V80.576C71.1813 81.5573 70.9359 82.2827 70.4453 82.752C69.9546 83.2213 69.1919 83.456 68.1573 83.456H66.1732V81.68H68.1573C68.9893 81.68 69.4053 81.2533 69.4053 80.4V72.64H71.1813V76.704C71.1813 77.2267 71.2986 77.6107 71.5333 77.856C71.7786 78.0907 72.1679 78.208 72.7013 78.208ZM77.5191 78.208H80.1911V80H72.7191C72.6125 80 72.5218 79.9627 72.4471 79.888C72.3725 79.8133 72.3351 79.7227 72.3351 79.616V78.592C72.3351 78.4853 72.3725 78.3947 72.4471 78.32C72.5218 78.2453 72.6125 78.208 72.7191 78.208H74.3831C74.0525 77.8453 73.8871 77.3813 73.8871 76.816V75.488C73.8871 74.6027 74.1378 73.8827 74.6391 73.328C75.1405 72.7627 75.8658 72.48 76.8151 72.48H78.8151V74.272H76.9271C76.5218 74.272 76.2071 74.3947 75.9831 74.64C75.7698 74.8747 75.6631 75.2107 75.6631 75.648V76.864C75.6631 77.344 75.8018 77.6907 76.0791 77.904C76.3671 78.1067 76.8471 78.208 77.5191 78.208Z" fill="white"/>
</g>
<defs>
<clipPath id="clip0_22_296">
<rect width="86" height="86" fill="white"/>
</clipPath>
</defs>
</svg>
