<!--?xml version="1.0" standalone="no"?-->

<svg version="1.0" xmlns="http://www.w3.org/2000/svg" width="7208.000000pt" height="504.000000pt" viewBox="0 0 7208.000000 504.000000" preserveAspectRatio="xMidYMid meet" style="">
<metadata>
Created by potrace 1.15, written by Peter Selinger 2001-2017
</metadata>
<g transform="translate(0.000000,504.000000) scale(0.100000,-0.100000)" fill="none" stroke="none">
    
    
<path d="M5678 5033 l-78 -4 0 -121 0 -121 122 6 c66 4 143 7 170 7 l48 0 0
120 0 120 -92 -2 c-51 -1 -128 -4 -170 -5z" fill="none" stroke="#9999F8" stroke-width="60px" class="NrigUzdX_0"></path>
<path d="M6020 4920 l0 -120 63 0 c35 0 125 -3 200 -7 l137 -6 0 120 0 120
-127 6 c-71 4 -161 7 -200 7 l-73 0 0 -120z" fill="none" stroke="#9999F8" stroke-width="60px" class="NrigUzdX_1"></path>
<path d="M5330 5004 c-63 -7 -165 -20 -226 -29 l-111 -17 -7 -51 c-3 -29 -6
-85 -6 -125 0 -70 1 -72 23 -67 64 14 445 65 490 65 4 0 7 54 7 120 l0 120
-27 -1 c-16 -1 -80 -7 -143 -15z" fill="none" stroke="#9999F8" stroke-width="60px" class="NrigUzdX_2"></path>
<path d="M6520 4901 l0 -120 33 -5 c37 -6 291 -36 305 -36 9 0 28 227 20 235
-2 2 -64 11 -138 20 -74 8 -154 18 -177 21 l-43 5 0 -120z" fill="none" stroke="#9999F8" stroke-width="60px" class="NrigUzdX_3"></path>
<path d="M29760 4880 l0 -119 226 -3 226 -3 -6 30 c-3 17 -11 72 -18 123 l-12
92 -208 0 -208 0 0 -120z" fill="none" stroke="#9999F8" stroke-width="60px" class="NrigUzdX_4"></path>
<path d="M29455 4980 c-44 -4 -113 -11 -152 -15 l-73 -7 0 -50 c0 -27 5 -81
12 -120 l11 -70 46 5 c25 3 117 12 204 18 l157 13 0 118 0 118 -62 -1 c-35 -1
-99 -5 -143 -9z" fill="none" stroke="#9999F8" stroke-width="60px" class="NrigUzdX_5"></path>
<path d="M30274 4949 c3 -24 9 -78 12 -121 l6 -76 92 -7 c50 -3 149 -13 220
-21 71 -8 130 -13 131 -12 5 6 56 230 53 232 -5 5 -309 35 -417 42 l-103 7 6
-44z" fill="none" stroke="#9999F8" stroke-width="60px" class="NrigUzdX_6"></path>
<path d="M6960 4886 c0 -40 -3 -93 -6 -118 l-6 -45 108 -17 c60 -9 126 -21
147 -25 l37 -9 0 123 0 123 -27 6 c-48 10 -222 36 -238 36 -12 0 -15 -15 -15
-74z" fill="none" stroke="#9999F8" stroke-width="60px" class="NrigUzdX_7"></path>
<path d="M53530 4948 c-79 -5 -146 -11 -148 -12 -2 -2 1 -12 6 -23 12 -23 32
-80 41 -118 4 -16 15 -44 24 -62 18 -35 -7 -33 219 -17 l87 6 5 41 c3 23 7 77
9 120 l4 77 -51 -1 c-28 -1 -116 -6 -196 -11z" fill="none" stroke="#9999F8" stroke-width="60px" class="NrigUzdX_8"></path>
<path d="M53876 4845 c-4 -64 -6 -118 -4 -120 2 -1 85 -5 185 -7 l181 -5 -5
116 c-3 64 -8 118 -10 121 -2 2 -80 6 -172 8 l-168 4 -7 -117z" fill="none" stroke="#9999F8" stroke-width="60px" class="NrigUzdX_9"></path>
<path d="M28926 4913 c-116 -18 -212 -35 -214 -37 -2 -2 0 -58 4 -123 l7 -120
41 9 c22 5 120 21 216 36 l175 28 -4 98 c-2 54 -6 108 -10 120 l-6 22 -209
-33z" fill="none" stroke="#9999F8" stroke-width="60px" class="NrigUzdX_10"></path>
<path d="M54316 4833 c4 -68 12 -121 18 -125 6 -4 31 -8 56 -8 25 0 101 -7
170 -15 185 -22 164 -32 178 88 7 56 12 109 12 118 0 13 -30 18 -172 32 -95
10 -195 20 -221 23 l-48 5 7 -118z" fill="none" stroke="#9999F8" stroke-width="60px" class="NrigUzdX_11"></path>
<path d="M4765 4919 c-49 -11 -137 -30 -195 -42 l-105 -23 -3 -126 -3 -125 53
13 c29 8 125 30 212 48 87 19 163 41 167 48 5 7 9 61 9 121 0 125 11 118 -135
86z" fill="none" stroke="#9999F8" stroke-width="60px" class="NrigUzdX_12"></path>
<path d="M30890 4885 c0 -25 -7 -78 -16 -116 -9 -39 -14 -72 -12 -74 2 -3 60
-13 129 -25 68 -11 159 -27 203 -37 l78 -16 39 42 c46 49 66 86 77 138 l8 38
-101 23 c-55 12 -156 31 -225 42 -69 11 -137 23 -152 26 -27 5 -28 5 -28 -41z" fill="none" stroke="#9999F8" stroke-width="60px" class="NrigUzdX_13"></path>
<path d="M53120 4909 c-36 -4 -96 -13 -134 -20 l-69 -11 7 -61 c3 -33 6 -87 6
-120 l0 -59 33 5 c17 3 112 16 210 28 l179 23 -5 26 c-7 35 -26 86 -56 147
-25 51 -27 53 -66 52 -22 -1 -69 -5 -105 -10z" fill="none" stroke="#9999F8" stroke-width="60px" class="NrigUzdX_14"></path>
<path d="M7340 4771 l0 -121 28 -6 c15 -3 81 -19 147 -36 66 -17 130 -33 143
-35 21 -5 22 -2 22 51 0 32 5 67 12 79 21 38 38 91 30 98 -8 8 -279 76 -339
85 l-43 7 0 -122z" fill="none" stroke="#9999F8" stroke-width="60px" class="NrigUzdX_15"></path>
<path d="M54850 4774 c-10 -90 -10 -118 -1 -124 7 -4 51 -13 99 -19 48 -7 127
-21 177 -32 49 -10 90 -19 92 -19 5 0 2 104 -6 173 -4 39 -13 72 -20 77 -8 4
-77 18 -155 29 -77 12 -148 24 -157 27 -14 4 -18 -12 -29 -112z" fill="none" stroke="#9999F8" stroke-width="60px" class="NrigUzdX_16"></path>
<path d="M52755 4853 c-191 -40 -301 -65 -304 -69 -2 -2 1 -30 8 -62 6 -31 16
-81 21 -110 5 -30 10 -55 12 -57 2 -2 79 13 172 33 l168 36 -6 60 c-3 32 -6
85 -6 117 0 63 -3 66 -65 52z" fill="none" stroke="#9999F8" stroke-width="60px" class="NrigUzdX_17"></path>
<path d="M28555 4843 c-43 -9 -390 -96 -393 -98 -1 -1 9 -33 22 -71 13 -38 30
-88 37 -111 7 -24 17 -43 24 -43 6 0 54 11 106 25 81 22 156 40 247 60 22 5
23 8 17 83 -13 169 -12 166 -60 155z" fill="none" stroke="#9999F8" stroke-width="60px" class="NrigUzdX_18"></path>
<path d="M4220 4790 c-58 -16 -159 -47 -225 -68 l-120 -39 4 -114 c2 -63 7
-118 11 -122 4 -5 95 19 201 53 107 33 211 63 232 67 l37 6 0 123 c0 145 14
136 -140 94z" fill="none" stroke="#9999F8" stroke-width="60px" class="NrigUzdX_19"></path>
<path d="M31481 4773 c-6 -21 -11 -45 -11 -54 0 -10 -13 -42 -30 -73 -20 -39
-26 -58 -17 -61 89 -28 319 -86 323 -82 5 5 44 197 44 217 0 13 -28 24 -142
54 -79 20 -146 36 -150 36 -4 0 -12 -17 -17 -37z" fill="none" stroke="#9999F8" stroke-width="60px" class="NrigUzdX_20"></path>
<path d="M55294 4794 c3 -9 6 -64 6 -123 l0 -107 123 -32 c67 -17 132 -34 143
-38 21 -5 22 -1 28 73 3 43 7 98 8 123 l3 45 -125 31 c-184 46 -193 47 -186
28z" fill="none" stroke="#9999F8" stroke-width="60px" class="NrigUzdX_21"></path>
<path d="M7828 4748 c-8 -13 -21 -41 -29 -63 -7 -22 -19 -49 -26 -60 -7 -11
-13 -33 -13 -50 0 -30 0 -30 143 -74 78 -24 147 -45 152 -47 13 -5 55 149 55
199 l0 35 -129 41 c-71 23 -131 41 -134 41 -3 0 -11 -10 -19 -22z" fill="none" stroke="#9999F8" stroke-width="60px" class="NrigUzdX_22"></path>
<path d="M52180 4721 c-181 -50 -325 -97 -325 -108 0 -19 28 -219 31 -225 2
-3 55 10 117 30 61 19 175 52 252 72 l140 37 -2 29 c-2 38 -31 183 -38 195 -9
13 -26 10 -175 -30z" fill="none" stroke="#9999F8" stroke-width="60px" class="NrigUzdX_23"></path>
<path d="M27877 4656 c-154 -49 -188 -63 -193 -80 -3 -12 -4 -69 -2 -127 l3
-106 180 57 180 58 13 98 c7 55 11 113 10 130 l-3 30 -188 -60z" fill="none" stroke="#9999F8" stroke-width="60px" class="NrigUzdX_24"></path>
<path d="M55709 4677 c0 -18 -4 -73 -7 -124 l-7 -91 99 -31 c73 -24 102 -29
112 -20 23 19 64 112 64 145 0 18 5 36 11 39 27 17 -15 36 -223 100 l-48 14
-1 -32z" fill="none" stroke="#9999F8" stroke-width="60px" class="NrigUzdX_25"></path>
<path d="M31886 4595 c-9 -59 -19 -112 -22 -119 -3 -9 24 -22 88 -43 l93 -29
8 31 c4 16 19 53 33 80 13 28 28 65 33 82 l10 33 -102 31 c-56 18 -107 34
-113 36 -6 2 -17 -37 -28 -102z" fill="none" stroke="#9999F8" stroke-width="60px" class="NrigUzdX_26"></path>
<path d="M3655 4611 c-101 -35 -295 -110 -304 -117 -3 -3 29 -236 34 -242 1
-1 87 31 191 71 104 41 197 77 208 81 17 6 18 14 11 119 -7 111 -10 127 -23
127 -4 -1 -56 -18 -117 -39z" fill="none" stroke="#9999F8" stroke-width="60px" class="NrigUzdX_27"></path>
<path d="M8216 4628 c-3 -13 -6 -43 -6 -68 0 -25 -6 -67 -13 -95 l-13 -50 100
-37 c56 -21 106 -38 113 -38 15 0 70 79 79 113 3 15 9 27 13 27 4 0 12 15 18
34 l11 35 -97 35 c-75 28 -187 65 -197 66 -1 0 -4 -10 -8 -22z" fill="none" stroke="#9999F8" stroke-width="60px" class="NrigUzdX_28"></path>
<path d="M32216 4592 c-2 -4 -7 -25 -10 -47 -4 -22 -21 -68 -38 -103 -17 -35
-29 -64 -27 -66 2 -2 42 -17 89 -34 47 -16 109 -39 138 -51 l53 -21 -3 131 -3
131 -65 24 c-90 33 -129 43 -134 36z" fill="none" stroke="#9999F8" stroke-width="60px" class="NrigUzdX_29"></path>
<path d="M51586 4535 c-71 -24 -133 -48 -139 -54 -6 -6 -5 -21 1 -43 6 -18 14
-70 17 -115 4 -46 9 -83 12 -83 3 0 58 20 122 44 64 24 130 47 148 51 29 6 31
9 27 38 -3 18 -11 70 -17 117 -9 61 -17 85 -27 87 -8 1 -73 -18 -144 -42z" fill="none" stroke="#9999F8" stroke-width="60px" class="NrigUzdX_30"></path>
<path d="M56090 4568 c0 -7 -9 -24 -20 -38 -11 -14 -20 -38 -20 -55 0 -16 -9
-49 -20 -72 l-19 -43 77 -24 c42 -13 115 -38 161 -55 47 -17 86 -30 87 -28 6
6 26 238 21 243 -8 8 -236 84 -253 84 -8 0 -14 -6 -14 -12z" fill="none" stroke="#9999F8" stroke-width="60px" class="NrigUzdX_31"></path>
<path d="M27470 4518 c-58 -22 -106 -42 -108 -43 -5 -4 54 -183 68 -204 l15
-23 68 27 67 27 0 129 c0 71 -1 129 -2 129 -2 0 -50 -19 -108 -42z" fill="none" stroke="#9999F8" stroke-width="60px" class="NrigUzdX_32"></path>
<path d="M32522 4359 l3 -131 105 -42 c58 -23 115 -48 126 -54 21 -11 23 -8
38 56 10 37 26 84 37 105 24 47 24 63 2 70 -10 3 -65 25 -123 49 -58 25 -124
52 -148 61 l-43 17 3 -131z" fill="none" stroke="#9999F8" stroke-width="60px" class="NrigUzdX_33"></path>
<path d="M8659 4458 c-6 -12 -20 -31 -30 -42 -11 -11 -19 -30 -19 -43 0 -13
-4 -23 -9 -23 -9 0 -31 -53 -31 -74 0 -7 17 -18 38 -25 20 -8 93 -38 162 -67
70 -30 129 -49 134 -44 4 5 9 61 10 126 l1 117 -110 48 c-60 26 -115 48 -122
48 -7 1 -18 -9 -24 -21z" fill="none" stroke="#9999F8" stroke-width="60px" class="NrigUzdX_34"></path>
<path d="M56475 4440 c-5 -8 -35 -233 -31 -236 0 0 46 -19 101 -41 l101 -40
34 81 c18 45 42 92 52 105 10 14 15 28 11 32 -4 4 -44 22 -88 39 -44 18 -101
40 -127 51 -29 11 -50 15 -53 9z" fill="none" stroke="#9999F8" stroke-width="60px" class="NrigUzdX_35"></path>
<path d="M51203 4388 l-123 -50 0 -130 c0 -120 1 -130 18 -125 9 3 79 31 154
63 l137 56 -5 62 c-3 33 -10 74 -15 90 -5 16 -9 42 -9 57 0 39 -10 37 -157
-23z" fill="none" stroke="#9999F8" stroke-width="60px" class="NrigUzdX_36"></path>
<path d="M27082 4360 c-89 -39 -167 -70 -172 -70 -6 0 -10 -54 -10 -135 0 -74
2 -135 5 -135 3 0 28 11 55 25 27 14 82 38 122 54 40 17 114 47 164 68 l91 39
-28 91 c-26 85 -47 133 -59 133 -3 0 -78 -32 -168 -70z" fill="none" stroke="#9999F8" stroke-width="60px" class="NrigUzdX_37"></path>
<path d="M3031 4361 l-114 -47 2 -129 c1 -72 4 -131 6 -133 2 -2 34 12 71 31
38 19 90 42 117 52 l47 18 0 128 c0 71 -3 129 -7 128 -5 0 -59 -21 -122 -48z" fill="none" stroke="#9999F8" stroke-width="60px" class="NrigUzdX_38"></path>
<path d="M9018 4225 c-1 -63 -2 -122 -2 -131 -1 -12 33 -32 116 -69 l118 -53
35 53 c19 30 38 62 41 72 4 10 17 32 30 49 l23 31 -151 69 c-83 38 -163 75
-179 82 l-29 12 -2 -115z" fill="none" stroke="#9999F8" stroke-width="60px" class="NrigUzdX_39"></path>
<path d="M32940 4292 c0 -10 -9 -36 -20 -57 -21 -40 -55 -145 -48 -149 15 -9
320 -146 325 -146 2 0 2 59 1 131 l-3 131 -115 53 c-63 30 -121 54 -127 55 -7
0 -13 -8 -13 -18z" fill="none" stroke="#9999F8" stroke-width="60px" class="NrigUzdX_40"></path>
<path d="M50940 4278 c-149 -66 -220 -103 -216 -114 5 -12 17 -58 36 -134 22
-86 25 -87 129 -39 l91 42 0 128 c0 71 -3 129 -7 128 -5 0 -19 -5 -33 -11z" fill="none" stroke="#9999F8" stroke-width="60px" class="NrigUzdX_41"></path>
<path d="M56823 4248 c-16 -24 -40 -71 -55 -104 l-26 -62 81 -35 c45 -19 137
-60 205 -90 118 -54 122 -55 127 -34 8 39 35 221 32 223 -12 12 -314 144 -328
144 -4 0 -20 -19 -36 -42z" fill="none" stroke="#9999F8" stroke-width="60px" class="NrigUzdX_42"></path>
<path d="M2543 4136 l-233 -115 0 -136 0 -135 225 112 225 113 0 105 c0 63 4
110 11 117 6 6 9 20 7 32 -3 20 -21 13 -235 -93z" fill="none" stroke="#9999F8" stroke-width="60px" class="NrigUzdX_43"></path>
<path d="M26700 4191 c-47 -21 -153 -72 -237 -114 l-152 -77 44 -62 c24 -35
57 -79 73 -98 l30 -35 171 85 171 85 0 127 c0 71 -3 128 -7 128 -5 0 -46 -18
-93 -39z" fill="none" stroke="#9999F8" stroke-width="60px" class="NrigUzdX_44"></path>
<path d="M33306 4143 c-3 -4 -6 -63 -6 -132 l0 -126 115 -58 c63 -31 123 -57
133 -57 10 0 25 8 33 18 9 9 27 26 41 37 13 11 31 34 40 50 8 17 21 40 28 52
8 12 12 24 10 26 -17 16 -389 195 -394 190z" fill="none" stroke="#9999F8" stroke-width="60px" class="NrigUzdX_45"></path>
<path d="M9460 4114 c0 -8 -11 -30 -25 -48 -14 -18 -25 -36 -25 -41 0 -4 -13
-30 -30 -56 l-30 -49 181 -91 c100 -50 185 -87 189 -82 9 9 70 197 70 213 0 8
-309 170 -325 170 -3 0 -5 -7 -5 -16z" fill="none" stroke="#9999F8" stroke-width="60px" class="NrigUzdX_46"></path>
<path d="M50458 4055 c-142 -72 -147 -76 -143 -102 17 -95 35 -209 35 -216 0
-4 77 31 171 79 156 77 170 87 165 107 -4 12 -11 44 -16 70 -11 56 -45 137
-57 136 -4 0 -74 -34 -155 -74z" fill="none" stroke="#9999F8" stroke-width="60px" class="NrigUzdX_47"></path>
<path d="M57291 4043 c-15 -69 -34 -194 -30 -198 7 -5 409 -205 414 -205 12 0
75 177 75 211 0 14 -54 45 -220 129 -120 60 -221 110 -224 110 -2 0 -9 -21
-15 -47z" fill="none" stroke="#9999F8" stroke-width="60px" class="NrigUzdX_48"></path>
<path d="M26135 3910 c-38 -22 -73 -41 -77 -42 -5 -3 18 -248 25 -254 1 -1 62
30 135 68 121 64 132 72 120 88 -7 10 -39 55 -71 99 -31 45 -58 81 -60 81 -1
-1 -33 -19 -72 -40z" fill="none" stroke="#9999F8" stroke-width="60px" class="NrigUzdX_49"></path>
<path d="M2035 3876 c-133 -70 -358 -196 -369 -207 -9 -8 7 -246 17 -256 4 -4
413 221 429 236 15 13 29 121 26 200 l-3 80 -100 -53z" fill="none" stroke="#9999F8" stroke-width="60px" class="NrigUzdX_50"></path>
<path d="M50069 3857 c-109 -58 -116 -64 -103 -81 7 -11 21 -42 30 -70 10 -28
28 -68 41 -89 l24 -38 87 47 c48 26 89 49 91 50 8 7 -34 244 -43 243 -6 0 -63
-28 -127 -62z" fill="none" stroke="#9999F8" stroke-width="60px" class="NrigUzdX_51"></path>
<path d="M9895 3883 c-4 -16 -18 -68 -33 -118 l-28 -90 185 -102 c102 -57 187
-103 190 -103 7 0 55 55 91 105 19 26 41 56 48 65 12 16 -7 29 -185 128 -284
158 -261 148 -268 115z" fill="none" stroke="#9999F8" stroke-width="60px" class="NrigUzdX_52"></path>
<path d="M33782 3873 c-34 -80 -71 -130 -112 -153 -8 -5 -13 -10 -10 -13 11
-10 272 -147 279 -147 5 0 12 37 16 83 3 45 10 101 15 125 l8 43 -89 45 c-49
24 -90 44 -92 44 -1 0 -8 -12 -15 -27z" fill="none" stroke="#9999F8" stroke-width="60px" class="NrigUzdX_53"></path>
<path d="M57830 3784 c-1 -32 -25 -115 -53 -184 -5 -11 30 -35 140 -95 80 -44
149 -79 152 -78 8 3 62 216 57 229 -4 10 -238 144 -278 160 -15 5 -18 0 -18
-32z" fill="none" stroke="#9999F8" stroke-width="60px" class="NrigUzdX_54"></path>
<path d="M25810 3736 c-69 -39 -134 -76 -145 -83 -18 -11 -17 -13 19 -55 21
-23 58 -64 83 -90 l46 -46 61 34 c33 20 70 40 82 45 19 10 20 13 7 117 -6 59
-12 117 -13 130 0 12 -3 22 -7 21 -5 -1 -64 -33 -133 -73z" fill="none" stroke="#9999F8" stroke-width="60px" class="NrigUzdX_55"></path>
<path d="M34072 3677 c-6 -39 -14 -97 -18 -127 l-6 -56 147 -82 c81 -45 151
-82 155 -82 4 0 20 28 35 63 15 34 34 76 42 94 8 17 13 39 11 49 -3 15 -72 57
-282 173 l-73 41 -11 -73z" fill="none" stroke="#9999F8" stroke-width="60px" class="NrigUzdX_56"></path>
<path d="M49720 3668 c-69 -39 -126 -71 -127 -72 -3 -3 28 -250 32 -254 2 -2
321 174 334 184 2 2 -3 14 -11 26 -8 13 -21 41 -28 63 -14 46 -58 125 -68 124
-4 0 -63 -32 -132 -71z" fill="none" stroke="#9999F8" stroke-width="60px" class="NrigUzdX_57"></path>
<path d="M1350 3490 c-102 -60 -222 -132 -267 -160 l-83 -51 0 -140 c0 -109 3
-139 13 -133 6 4 80 49 162 99 83 51 198 120 257 154 59 34 111 68 116 74 7 8
6 57 -1 139 l-12 127 -185 -109z" fill="none" stroke="#9999F8" stroke-width="60px" class="NrigUzdX_58"></path>
<path d="M10423 3553 c-46 -56 -106 -143 -101 -147 20 -17 349 -208 352 -205
2 2 15 49 29 104 14 55 28 107 31 115 6 14 -33 40 -235 159 l-36 21 -40 -47z" fill="none" stroke="#9999F8" stroke-width="60px" class="NrigUzdX_59"></path>
<path d="M58216 3487 c-16 -62 -29 -116 -30 -121 -1 -4 40 -32 89 -61 l90 -54
40 44 c55 60 115 132 115 139 0 5 -83 55 -230 139 l-46 25 -28 -111z" fill="none" stroke="#9999F8" stroke-width="60px" class="NrigUzdX_60"></path>
<path d="M25450 3533 c-41 -24 -76 -46 -78 -48 -5 -5 29 -124 53 -182 l21 -52
79 47 c44 27 104 61 133 77 l52 28 -34 36 c-18 20 -55 60 -81 89 -26 28 -53
52 -59 51 -6 0 -45 -21 -86 -46z" fill="none" stroke="#9999F8" stroke-width="60px" class="NrigUzdX_61"></path>
<path d="M49306 3430 c-93 -54 -170 -100 -171 -102 -4 -5 32 -239 38 -245 10
-9 342 188 342 203 0 40 -29 244 -34 244 -4 0 -83 -45 -175 -100z" fill="none" stroke="#9999F8" stroke-width="60px" class="NrigUzdX_62"></path>
<path d="M34527 3484 c-4 -4 -7 -19 -7 -34 0 -14 -4 -30 -8 -35 -5 -6 -21 -41
-37 -79 -23 -57 -26 -70 -14 -77 8 -5 70 -42 139 -82 69 -40 137 -81 152 -91
l27 -18 3 139 3 138 -115 69 c-132 78 -134 79 -143 70z" fill="none" stroke="#9999F8" stroke-width="60px" class="NrigUzdX_63"></path>
<path d="M25150 3355 c-58 -34 -148 -89 -201 -121 l-96 -60 54 -64 c30 -36 62
-78 71 -93 10 -16 23 -26 32 -24 12 3 76 41 307 184 10 6 7 25 -11 83 -14 41
-31 93 -38 116 l-13 41 -105 -62z" fill="none" stroke="#9999F8" stroke-width="60px" class="NrigUzdX_64"></path>
<path d="M10846 3358 c-18 -52 -46 -160 -51 -193 l-6 -40 132 -79 131 -79 32
34 c17 18 51 60 76 94 l46 60 -146 89 c-80 48 -160 97 -177 108 -26 16 -34 17
-37 6z" fill="none" stroke="#9999F8" stroke-width="60px" class="NrigUzdX_65"></path>
<path d="M58570 3314 c-25 -31 -57 -70 -72 -87 -15 -17 -25 -34 -22 -38 3 -5
35 -25 72 -46 37 -20 102 -59 145 -86 44 -26 81 -47 83 -44 5 5 44 215 44 236
0 15 -173 121 -196 121 -5 0 -29 -25 -54 -56z" fill="none" stroke="#9999F8" stroke-width="60px" class="NrigUzdX_66"></path>
<path d="M34886 3249 c-3 -18 -6 -79 -6 -138 l1 -106 111 -66 112 -67 13 24
c6 14 15 52 19 86 4 34 13 73 20 87 8 14 14 31 14 36 0 6 -44 36 -98 67 -53
32 -116 69 -138 83 l-42 25 -6 -31z" fill="none" stroke="#9999F8" stroke-width="60px" class="NrigUzdX_67"></path>
<path d="M49015 3261 c-5 -5 -64 -43 -130 -83 l-121 -73 22 -32 c37 -55 119
-153 127 -153 5 0 40 19 79 42 l70 41 -7 61 c-15 134 -30 207 -40 197z" fill="none" stroke="#9999F8" stroke-width="60px" class="NrigUzdX_68"></path>
<path d="M780 3147 c-36 -21 -109 -66 -163 -100 l-98 -61 7 -130 c4 -72 8
-133 10 -135 5 -6 306 182 310 194 3 6 3 70 2 141 l-3 131 -65 -40z" fill="none" stroke="#9999F8" stroke-width="60px" class="NrigUzdX_69"></path>
<path d="M58922 3143 c-18 -86 -36 -202 -31 -206 2 -2 79 -49 172 -105 131
-79 167 -97 167 -83 0 10 7 24 15 31 8 7 15 21 15 30 0 10 3 20 8 22 9 4 56
76 64 99 5 13 -38 43 -190 134 -108 65 -200 120 -204 122 -3 2 -11 -18 -16
-44z" fill="none" stroke="#9999F8" stroke-width="60px" class="NrigUzdX_70"></path>
<path d="M24663 3061 c-51 -31 -97 -61 -103 -67 -10 -10 1 -57 55 -231 2 -7
58 21 141 73 76 46 139 86 142 89 7 6 -16 39 -84 121 l-59 70 -92 -55z" fill="none" stroke="#9999F8" stroke-width="60px" class="NrigUzdX_71"></path>
<path d="M11254 3033 c-27 -37 -59 -78 -72 -92 -12 -13 -21 -28 -20 -33 2 -5
80 -55 173 -113 159 -97 170 -103 178 -83 8 22 37 192 37 218 0 8 -30 33 -67
56 -38 22 -93 57 -124 77 l-57 36 -48 -66z" fill="none" stroke="#9999F8" stroke-width="60px" class="NrigUzdX_72"></path>
<path d="M35260 3050 c0 -6 -9 -29 -19 -53 -11 -23 -22 -69 -26 -101 -4 -33
-9 -64 -11 -71 -3 -7 39 -39 96 -73 l100 -62 0 139 0 140 -27 19 c-65 45 -113
72 -113 62z" fill="none" stroke="#9999F8" stroke-width="60px" class="NrigUzdX_73"></path>
<path d="M48585 2998 c-44 -28 -82 -52 -84 -54 -4 -4 29 -209 38 -236 5 -15
26 -6 135 62 71 43 131 81 133 84 3 2 -17 32 -44 65 -26 33 -59 75 -73 94
l-25 34 -80 -49z" fill="none" stroke="#9999F8" stroke-width="60px" class="NrigUzdX_74"></path>
<path d="M213 2796 l-212 -131 0 -72 c-1 -63 3 -77 30 -122 37 -59 10 -69 249
82 l165 104 -2 115 c-2 64 -6 125 -10 136 -7 18 -27 8 -220 -112z" fill="none" stroke="#9999F8" stroke-width="60px" class="NrigUzdX_75"></path>
<path d="M24323 2850 l-113 -72 49 -71 c27 -40 60 -83 74 -96 l26 -24 67 44
c37 24 71 47 76 50 4 3 -9 58 -29 123 l-38 117 -112 -71z" fill="none" stroke="#9999F8" stroke-width="60px" class="NrigUzdX_76"></path>
<path d="M35500 2769 l0 -144 151 -94 c82 -51 151 -92 153 -90 11 13 37 82 47
124 6 28 18 61 26 73 8 13 13 25 11 27 -2 2 -77 50 -168 107 -91 57 -177 112
-192 122 l-28 18 0 -143z" fill="none" stroke="#9999F8" stroke-width="60px" class="NrigUzdX_77"></path>
<path d="M59419 2862 c-21 -42 -63 -107 -71 -110 -5 -2 -8 -11 -8 -20 0 -8 -7
-23 -15 -32 -16 -17 -13 -19 221 -167 21 -13 22 -10 53 108 18 66 31 122 29
123 -3 3 -36 24 -157 100 l-38 25 -14 -27z" fill="none" stroke="#9999F8" stroke-width="60px" class="NrigUzdX_78"></path>
<path d="M48345 2849 c-27 -17 -51 -32 -53 -34 -2 -1 13 -29 32 -62 19 -32 38
-71 41 -85 9 -37 42 -65 57 -50 8 8 7 37 -5 114 -9 57 -18 113 -19 126 l-3 23
-50 -32z" fill="none" stroke="#9999F8" stroke-width="60px" class="NrigUzdX_79"></path>
<path d="M11657 2853 c-9 -29 -39 -235 -35 -238 2 -2 65 -41 140 -88 l137 -85
11 32 c6 18 19 50 30 71 11 22 20 46 20 55 0 8 7 24 15 34 8 11 15 23 15 27 0
6 -293 194 -321 207 -4 2 -10 -5 -12 -15z" fill="none" stroke="#9999F8" stroke-width="60px" class="NrigUzdX_80"></path>
<path d="M48063 2672 l-123 -77 0 -55 c1 -61 23 -177 37 -191 13 -13 336 190
325 204 -5 7 -13 23 -17 37 -10 33 -84 160 -93 159 -4 0 -62 -35 -129 -77z" fill="none" stroke="#9999F8" stroke-width="60px" class="NrigUzdX_81"></path>
<path d="M24028 2667 c-45 -28 -68 -48 -68 -61 0 -18 -1 -18 -12 -3 -9 11 -18
14 -27 8 -12 -8 -11 -17 7 -59 12 -28 22 -58 22 -66 0 -9 4 -16 10 -16 5 0 21
-20 35 -45 31 -52 14 -56 168 40 l96 60 -19 20 c-11 12 -41 52 -68 91 -26 38
-54 70 -62 71 -8 1 -45 -17 -82 -40z" fill="none" stroke="#9999F8" stroke-width="60px" class="NrigUzdX_82"></path>
<path d="M59736 2678 c-3 -7 -17 -60 -32 -116 -22 -88 -24 -106 -13 -117 17
-15 211 -137 213 -133 12 28 48 83 77 118 62 76 62 76 -59 152 -174 108 -181
112 -186 96z" fill="none" stroke="#9999F8" stroke-width="60px" class="NrigUzdX_83"></path>
<path d="M12061 2567 c-12 -24 -21 -47 -21 -52 0 -4 -12 -32 -26 -62 -14 -30
-24 -58 -22 -63 3 -10 336 -220 348 -220 12 0 20 69 20 171 l0 97 -114 70
c-63 39 -125 77 -139 86 -25 17 -25 17 -46 -27z" fill="none" stroke="#9999F8" stroke-width="60px" class="NrigUzdX_84"></path>
<path d="M35963 2571 c-11 -20 -26 -62 -33 -94 -8 -32 -17 -60 -22 -63 -27
-17 0 -45 117 -117 69 -42 129 -77 133 -77 7 0 75 232 69 235 -1 1 -56 35
-123 77 l-120 75 -21 -36z" fill="none" stroke="#9999F8" stroke-width="60px" class="NrigUzdX_85"></path>
<path d="M47679 2447 c-169 -106 -164 -86 -50 -202 l68 -70 82 50 c78 48 82
51 76 80 -3 17 -8 76 -12 133 -3 56 -8 102 -12 101 -3 0 -72 -42 -152 -92z" fill="none" stroke="#9999F8" stroke-width="60px" class="NrigUzdX_86"></path>
<path d="M71690 2437 c-91 -56 -164 -107 -163 -112 1 -6 23 -55 50 -110 l48
-101 147 91 147 90 1 72 c0 63 -4 78 -31 122 -18 28 -33 51 -33 51 -1 0 -76
-46 -166 -103z" fill="none" stroke="#9999F8" stroke-width="60px" class="NrigUzdX_87"></path>
<path d="M23650 2444 c-74 -47 -139 -89 -143 -94 -5 -4 6 -61 24 -127 l31
-120 152 95 c83 53 152 97 154 98 13 8 -65 237 -81 234 -1 -1 -63 -39 -137
-86z" fill="none" stroke="#9999F8" stroke-width="60px" class="NrigUzdX_88"></path>
<path d="M60116 2431 c-9 -10 -16 -21 -16 -26 0 -5 -17 -29 -38 -54 -21 -25
-45 -58 -54 -72 l-16 -26 138 -86 c77 -48 141 -87 144 -87 4 0 6 10 6 23 0 12
14 65 30 117 l30 95 -22 16 c-11 9 -58 39 -104 67 -78 48 -83 50 -98 33z" fill="none" stroke="#9999F8" stroke-width="60px" class="NrigUzdX_89"></path>
<path d="M36304 2264 l-31 -123 101 -62 c56 -35 142 -89 193 -121 94 -59 113
-63 140 -29 7 9 13 25 13 37 0 11 4 24 9 30 5 5 18 33 29 62 l20 52 -131 81
c-73 45 -149 92 -169 105 -20 13 -60 38 -90 57 l-53 34 -31 -123z" fill="none" stroke="#9999F8" stroke-width="60px" class="NrigUzdX_90"></path>
<path d="M12466 2338 c-3 -13 -7 -73 -8 -134 l-3 -111 143 -89 c79 -49 147
-90 152 -92 4 -1 15 17 24 41 9 24 31 73 50 109 l33 65 -185 114 c-102 63
-189 115 -193 117 -5 2 -11 -7 -13 -20z" fill="none" stroke="#9999F8" stroke-width="60px" class="NrigUzdX_91"></path>
<path d="M47368 2250 c-38 -23 -68 -44 -68 -48 0 -4 9 -59 20 -122 11 -63 20
-118 20 -122 0 -4 24 7 53 25 28 18 87 55 130 81 l79 48 -60 62 c-33 33 -71
73 -84 89 l-23 27 -67 -40z" fill="none" stroke="#9999F8" stroke-width="60px" class="NrigUzdX_92"></path>
<path d="M23259 2199 l-126 -79 27 -58 c15 -31 35 -81 45 -110 12 -37 21 -52
31 -48 34 13 214 131 214 141 -1 12 -58 227 -62 230 -2 1 -60 -33 -129 -76z" fill="none" stroke="#9999F8" stroke-width="60px" class="NrigUzdX_93"></path>
<path d="M71260 2168 c-91 -55 -167 -103 -169 -105 -9 -7 43 -243 54 -243 5 0
57 30 115 66 58 36 142 88 188 115 45 28 82 54 82 58 0 5 -20 49 -45 100 -25
50 -45 96 -45 101 0 6 -3 10 -7 10 -5 0 -82 -46 -173 -102z" fill="none" stroke="#9999F8" stroke-width="60px" class="NrigUzdX_94"></path>
<path d="M60412 2128 c-27 -91 -31 -113 -20 -123 13 -12 233 -148 321 -199
l47 -28 41 89 c22 48 45 96 51 107 5 10 6 22 1 25 -20 18 -391 241 -399 241
-5 0 -24 -50 -42 -112z" fill="none" stroke="#9999F8" stroke-width="60px" class="NrigUzdX_95"></path>
<path d="M47043 2051 c-79 -47 -143 -89 -143 -94 0 -4 27 -41 60 -82 32 -41
63 -82 68 -91 8 -14 22 -9 106 41 70 42 96 63 96 77 0 30 -31 211 -39 224 -4
7 -60 -22 -148 -75z" fill="none" stroke="#9999F8" stroke-width="60px" class="NrigUzdX_96"></path>
<path d="M12938 2047 c-21 -34 -88 -174 -88 -186 0 -5 46 -38 103 -72 191
-117 272 -165 330 -198 l57 -32 0 138 -1 138 -156 95 c-86 52 -173 105 -193
117 l-38 23 -14 -23z" fill="none" stroke="#9999F8" stroke-width="60px" class="NrigUzdX_97"></path>
<path d="M22900 1981 l-125 -78 2 -69 c3 -88 22 -184 37 -184 10 0 253 148
300 182 18 13 18 16 2 64 -21 64 -68 157 -81 160 -5 1 -66 -32 -135 -75z" fill="none" stroke="#9999F8" stroke-width="60px" class="NrigUzdX_98"></path>
<path d="M36849 2003 c-11 -27 -26 -61 -34 -76 -8 -16 -15 -36 -15 -46 0 -9
-5 -22 -12 -29 -16 -16 -12 -20 133 -109 208 -127 271 -164 274 -161 2 2 4 63
6 136 l4 134 -163 99 c-89 54 -165 99 -168 99 -3 0 -14 -21 -25 -47z" fill="none" stroke="#9999F8" stroke-width="60px" class="NrigUzdX_99"></path>
<path d="M70875 1935 c-49 -30 -91 -59 -93 -65 -2 -5 5 -21 17 -35 11 -15 30
-56 42 -93 12 -37 25 -71 30 -76 6 -7 118 50 157 79 1 1 -9 54 -23 118 -14 64
-25 119 -25 122 0 11 -18 2 -105 -50z" fill="none" stroke="#9999F8" stroke-width="60px" class="NrigUzdX_100"></path>
<path d="M60938 1908 c-8 -13 -19 -34 -23 -48 -4 -14 -20 -50 -36 -81 l-28
-56 132 -82 c72 -44 134 -78 138 -73 3 4 14 52 24 107 9 55 19 107 21 116 3
12 -22 33 -94 78 -55 34 -104 61 -109 61 -6 0 -17 -10 -25 -22z" fill="none" stroke="#9999F8" stroke-width="60px" class="NrigUzdX_101"></path>
<path d="M46708 1847 l-87 -52 -1 -138 0 -139 48 27 c157 91 230 135 251 152
l23 19 -62 79 c-35 44 -68 85 -74 92 -9 10 -31 1 -98 -40z" fill="none" stroke="#9999F8" stroke-width="60px" class="NrigUzdX_102"></path>
<path d="M22581 1791 c-89 -55 -87 -52 -49 -103 18 -24 44 -67 57 -96 14 -28
29 -52 34 -52 5 0 24 9 43 20 29 18 32 24 24 49 -4 16 -11 72 -15 125 -5 61
-12 96 -19 96 -6 -1 -40 -18 -75 -39z" fill="none" stroke="#9999F8" stroke-width="60px" class="NrigUzdX_103"></path>
<path d="M70577 1754 c-91 -52 -98 -58 -93 -82 3 -15 10 -63 16 -107 19 -139
2 -134 151 -47 146 85 138 72 99 175 -11 29 -33 66 -48 84 l-27 32 -98 -55z" fill="none" stroke="#9999F8" stroke-width="60px" class="NrigUzdX_104"></path>
<path d="M37305 1654 c-3 -75 -5 -137 -3 -138 4 -4 221 -130 289 -169 l47 -27
13 31 c7 17 20 39 29 48 10 9 24 36 32 61 9 25 19 52 23 62 5 13 -9 25 -62 54
-37 21 -131 76 -208 122 -77 46 -143 86 -146 88 -4 2 -10 -57 -14 -132z" fill="none" stroke="#9999F8" stroke-width="60px" class="NrigUzdX_105"></path>
<path d="M13440 1633 l0 -138 173 -97 c96 -54 176 -98 179 -98 3 0 8 39 11 88
4 48 9 105 13 128 l6 41 -78 43 c-44 23 -127 71 -185 106 -59 35 -110 64 -113
64 -3 0 -6 -62 -6 -137z" fill="none" stroke="#9999F8" stroke-width="60px" class="NrigUzdX_106"></path>
<path d="M61252 1618 c-12 -67 -20 -123 -19 -124 13 -11 139 -84 145 -84 5 0
46 38 92 86 l83 85 -132 80 c-73 43 -136 79 -140 79 -4 0 -17 -55 -29 -122z" fill="none" stroke="#9999F8" stroke-width="60px" class="NrigUzdX_107"></path>
<path d="M46415 1674 c-49 -30 -116 -69 -147 -86 -64 -34 -64 -39 -9 -93 17
-16 31 -33 31 -37 0 -4 11 -23 24 -43 14 -20 26 -41 28 -47 3 -7 38 8 91 38
l87 49 0 138 c0 75 -3 137 -7 137 -5 -1 -48 -25 -98 -56z" fill="none" stroke="#9999F8" stroke-width="60px" class="NrigUzdX_108"></path>
<path d="M22320 1635 c-85 -49 -77 -24 -64 -208 4 -54 10 -96 13 -95 52 23
251 142 251 150 0 19 -60 122 -93 160 l-32 36 -75 -43z" fill="none" stroke="#9999F8" stroke-width="60px" class="NrigUzdX_109"></path>
<path d="M70345 1616 c-11 -7 -78 -46 -150 -86 -71 -40 -134 -76 -138 -80 -5
-4 17 -49 47 -100 31 -52 57 -98 59 -103 2 -7 221 108 246 129 5 5 -32 254
-38 254 -4 0 -15 -6 -26 -14z" fill="none" stroke="#9999F8" stroke-width="60px" class="NrigUzdX_110"></path>
<path d="M22030 1473 c-52 -29 -94 -59 -93 -65 3 -26 34 -135 51 -179 l17 -47
78 45 c77 45 77 45 77 86 0 43 -24 205 -31 211 -2 1 -47 -21 -99 -51z" fill="none" stroke="#9999F8" stroke-width="60px" class="NrigUzdX_111"></path>
<path d="M61643 1504 c-6 -3 -45 -40 -86 -82 l-75 -76 156 -87 c86 -49 157
-87 158 -86 2 1 16 55 32 119 l30 118 -88 50 c-84 48 -101 54 -127 44z" fill="none" stroke="#9999F8" stroke-width="60px" class="NrigUzdX_112"></path>
<path d="M13905 1478 c-27 -125 -32 -220 -12 -236 19 -16 340 -183 344 -179 6
7 22 151 23 203 l0 52 -72 37 c-40 21 -116 62 -169 91 -54 30 -100 54 -103 54
-3 0 -8 -10 -11 -22z" fill="none" stroke="#9999F8" stroke-width="60px" class="NrigUzdX_113"></path>
<path d="M37804 1411 c-15 -42 -32 -80 -39 -86 -6 -5 -17 -20 -23 -32 -11 -20
-8 -24 30 -46 24 -14 75 -43 113 -65 39 -22 94 -51 123 -66 l53 -27 -3 137 -3
137 -112 62 -112 63 -27 -77z" fill="none" stroke="#9999F8" stroke-width="60px" class="NrigUzdX_114"></path>
<path d="M46051 1467 l-34 -20 6 -66 c4 -36 11 -93 17 -127 l12 -61 99 54 c54
30 99 58 99 63 0 4 -9 19 -20 33 -11 14 -20 28 -20 32 0 4 -15 23 -32 42 -78
85 -73 83 -127 50z" fill="none" stroke="#9999F8" stroke-width="60px" class="NrigUzdX_115"></path>
<path d="M45805 1332 c-55 -29 -169 -88 -252 -130 l-153 -77 0 -132 c0 -73 3
-133 8 -133 4 0 124 61 267 134 l260 134 -1 33 c-4 85 -18 220 -23 222 -3 2
-51 -21 -106 -51z" fill="none" stroke="#9999F8" stroke-width="60px" class="NrigUzdX_116"></path>
<path d="M69780 1300 l-165 -88 2 -39 c2 -32 40 -192 48 -201 4 -5 360 184
404 215 4 3 -107 191 -117 197 -4 2 -81 -35 -172 -84z" fill="none" stroke="#9999F8" stroke-width="60px" class="NrigUzdX_117"></path>
<path d="M21718 1307 l-98 -52 0 -101 c0 -56 3 -116 6 -133 l7 -31 139 72
c101 53 137 77 134 88 -3 8 -13 44 -24 80 -23 83 -44 130 -57 129 -5 0 -54
-24 -107 -52z" fill="none" stroke="#9999F8" stroke-width="60px" class="NrigUzdX_118"></path>
<path d="M61966 1341 c-7 -13 -58 -232 -55 -235 2 -1 66 -35 142 -74 81 -43
137 -66 137 -59 0 7 9 32 20 55 11 22 20 54 20 69 0 15 7 37 15 47 8 11 15 27
15 35 0 17 -287 175 -294 162z" fill="none" stroke="#9999F8" stroke-width="60px" class="NrigUzdX_119"></path>
<path d="M38160 1171 l0 -136 174 -87 174 -87 7 52 c3 29 11 85 17 125 6 40 9
74 7 76 -2 2 -88 46 -191 98 l-188 95 0 -136z" fill="none" stroke="#9999F8" stroke-width="60px" class="NrigUzdX_120"></path>
<path d="M14360 1198 c0 -35 -3 -93 -6 -130 l-7 -67 160 -80 160 -80 28 102
c15 56 30 110 32 119 4 13 -32 36 -176 107 -99 50 -183 91 -186 91 -3 0 -5
-28 -5 -62z" fill="none" stroke="#9999F8" stroke-width="60px" class="NrigUzdX_121"></path>
<path d="M21395 1141 l-111 -56 7 -49 c4 -27 12 -61 18 -75 5 -14 12 -43 16
-63 3 -21 10 -40 15 -43 5 -3 47 14 94 37 l86 42 -1 116 c0 63 -3 122 -7 131
-6 15 -23 9 -117 -40z" fill="none" stroke="#9999F8" stroke-width="60px" class="NrigUzdX_122"></path>
<path d="M62350 1132 c0 -10 -9 -35 -20 -57 -11 -22 -20 -49 -20 -61 0 -12 -7
-38 -16 -59 -8 -20 -14 -38 -12 -40 2 -1 76 -39 165 -83 131 -66 162 -78 167
-66 3 9 6 68 6 132 l0 117 -135 68 c-111 55 -135 64 -135 49z" fill="none" stroke="#9999F8" stroke-width="60px" class="NrigUzdX_123"></path>
<path d="M69385 1098 c-55 -28 -101 -51 -103 -53 -2 -2 76 -216 82 -222 6 -6
186 86 186 95 0 5 -6 31 -14 58 -8 27 -17 69 -21 94 -8 59 -15 80 -23 79 -4 0
-52 -23 -107 -51z" fill="none" stroke="#9999F8" stroke-width="60px" class="NrigUzdX_124"></path>
<path d="M38620 1036 c0 -18 -4 -55 -9 -82 -5 -27 -11 -69 -12 -93 l-3 -44
149 -69 c83 -38 160 -73 173 -78 l22 -10 0 134 0 133 -67 28 c-38 16 -107 48
-155 72 -48 24 -90 43 -93 43 -3 0 -5 -15 -5 -34z" fill="none" stroke="#9999F8" stroke-width="60px" class="NrigUzdX_125"></path>
<path d="M45172 1013 l-113 -55 20 -22 c12 -12 21 -27 21 -32 0 -5 22 -32 50
-59 27 -28 50 -56 50 -62 0 -17 11 -16 60 3 l40 16 0 134 c0 74 -3 134 -7 133
-5 0 -59 -26 -121 -56z" fill="none" stroke="#9999F8" stroke-width="60px" class="NrigUzdX_126"></path>
<path d="M21082 993 l-104 -46 8 -86 c3 -47 9 -105 13 -128 l6 -41 121 55 121
56 -8 36 c-4 20 -12 52 -17 71 -6 19 -13 56 -17 83 -3 26 -9 47 -13 46 -4 0
-53 -21 -110 -46z" fill="none" stroke="#9999F8" stroke-width="60px" class="NrigUzdX_127"></path>
<path d="M14790 919 c-18 -61 -28 -114 -24 -118 11 -10 221 -106 252 -116 l22
-6 0 129 0 129 -87 40 c-141 65 -125 70 -163 -58z" fill="none" stroke="#9999F8" stroke-width="60px" class="NrigUzdX_128"></path>
<path d="M69075 946 l-91 -41 4 -120 c2 -66 7 -123 11 -127 6 -7 245 94 263
111 8 7 -55 186 -73 208 -14 17 -8 18 -114 -31z" fill="none" stroke="#9999F8" stroke-width="60px" class="NrigUzdX_129"></path>
<path d="M62720 832 l0 -128 48 -24 c72 -36 275 -120 279 -116 2 2 7 59 10
127 l5 124 -53 22 c-30 11 -104 44 -166 72 -62 28 -115 51 -118 51 -3 0 -5
-58 -5 -128z" fill="none" stroke="#9999F8" stroke-width="60px" class="NrigUzdX_130"></path>
<path d="M44863 873 l-83 -36 0 -128 c0 -71 1 -129 3 -129 7 0 266 109 296
124 l32 17 -43 45 c-24 25 -45 51 -48 57 -7 18 -64 87 -70 86 -3 -1 -42 -17
-87 -36z" fill="none" stroke="#9999F8" stroke-width="60px" class="NrigUzdX_131"></path>
<path d="M20805 871 c-33 -15 -111 -47 -172 -72 l-113 -44 0 -127 c0 -71 4
-128 8 -128 7 0 248 96 332 133 l36 16 -9 93 c-5 51 -11 107 -15 125 l-7 31
-60 -27z" fill="none" stroke="#9999F8" stroke-width="60px" class="NrigUzdX_132"></path>
<path d="M15140 762 l0 -129 28 -12 c55 -26 275 -112 277 -109 9 11 44 142 49
184 l6 51 -72 28 c-40 15 -119 48 -175 72 -57 23 -105 43 -108 43 -3 0 -5 -58
-5 -128z" fill="none" stroke="#9999F8" stroke-width="60px" class="NrigUzdX_133"></path>
<path d="M39040 749 l0 -129 58 -26 c31 -14 102 -44 156 -66 l100 -39 18 23
c10 13 18 31 18 41 0 9 5 17 10 17 6 0 10 6 10 13 0 8 6 27 14 43 8 16 16 42
18 57 3 28 -1 30 -127 82 -71 29 -163 66 -202 83 l-73 31 0 -130z" fill="none" stroke="#9999F8" stroke-width="60px" class="NrigUzdX_134"></path>
<path d="M68770 809 c-52 -22 -124 -52 -161 -66 l-65 -26 31 -76 c38 -94 63
-141 75 -141 5 0 60 22 122 49 l113 50 3 43 c5 55 -8 208 -16 208 -4 0 -50
-19 -102 -41z" fill="none" stroke="#9999F8" stroke-width="60px" class="NrigUzdX_135"></path>
<path d="M44525 733 c-77 -31 -141 -57 -143 -59 -2 -1 10 -33 26 -71 17 -37
36 -87 43 -111 9 -32 16 -41 28 -37 9 3 58 22 109 42 l92 36 0 129 c0 70 -3
128 -7 128 -5 -1 -71 -26 -148 -57z" fill="none" stroke="#9999F8" stroke-width="60px" class="NrigUzdX_136"></path>
<path d="M63140 680 c0 -53 -3 -111 -6 -127 l-6 -30 124 -50 125 -50 11 101
c19 163 31 143 -118 203 l-130 51 0 -98z" fill="none" stroke="#9999F8" stroke-width="60px" class="NrigUzdX_137"></path>
<path d="M15586 695 c-3 -8 -8 -42 -12 -77 -4 -35 -13 -81 -21 -102 -7 -22
-10 -43 -6 -47 5 -3 60 -24 123 -44 63 -21 118 -40 123 -42 4 -2 7 52 7 122
l0 125 -27 11 c-146 56 -182 67 -187 54z" fill="none" stroke="#9999F8" stroke-width="60px" class="NrigUzdX_138"></path>
<path d="M20315 673 c-49 -18 -109 -38 -132 -44 -24 -6 -43 -12 -43 -14 0 -19
80 -179 106 -214 2 -2 42 9 89 25 l85 28 -1 111 c0 60 -3 117 -7 126 -6 14
-18 12 -97 -18z" fill="none" stroke="#9999F8" stroke-width="60px" class="NrigUzdX_139"></path>
<path d="M39535 658 c-2 -7 -9 -37 -15 -66 -7 -28 -16 -55 -21 -58 -5 -3 -9
-14 -9 -25 0 -10 -4 -19 -9 -19 -17 0 -19 -48 -2 -53 9 -3 83 -28 165 -56 81
-28 152 -49 156 -46 10 6 34 210 27 228 -3 8 -20 18 -38 22 -18 4 -80 25 -137
46 -120 45 -111 43 -117 27z" fill="none" stroke="#9999F8" stroke-width="60px" class="NrigUzdX_140"></path>
<path d="M68315 625 l-110 -44 2 -33 c1 -18 5 -74 9 -124 l6 -91 101 37 c118
43 210 80 216 86 2 2 -1 9 -6 16 -6 7 -19 38 -31 68 -28 78 -55 130 -67 129
-5 0 -59 -20 -120 -44z" fill="none" stroke="#9999F8" stroke-width="60px" class="NrigUzdX_141"></path>
<path d="M44176 600 l-78 -27 1 -124 c1 -68 3 -124 4 -125 3 -2 258 84 264 89
2 3 -7 34 -22 69 -14 34 -33 82 -42 106 -18 49 -20 50 -127 12z" fill="none" stroke="#9999F8" stroke-width="60px" class="NrigUzdX_142"></path>
<path d="M63510 612 c-1 -9 -7 -64 -14 -122 -7 -58 -12 -106 -11 -108 3 -4
266 -92 274 -92 9 0 51 157 54 198 l2 34 -125 43 c-69 23 -137 47 -152 53 -24
10 -28 9 -28 -6z" fill="none" stroke="#9999F8" stroke-width="60px" class="NrigUzdX_143"></path>
<path d="M15902 475 l3 -128 154 -49 c85 -27 164 -48 175 -46 20 3 21 11 24
120 2 104 1 117 -15 122 -34 9 -318 99 -331 103 -10 4 -12 -22 -10 -122z" fill="none" stroke="#9999F8" stroke-width="60px" class="NrigUzdX_144"></path>
<path d="M19895 537 c-71 -22 -131 -42 -133 -42 -5 -4 11 -224 18 -235 4 -7
61 7 180 44 95 31 175 57 177 59 2 3 -10 28 -27 56 -16 29 -30 54 -30 57 0 13
-43 104 -49 103 -3 0 -64 -19 -136 -42z" fill="none" stroke="#9999F8" stroke-width="60px" class="NrigUzdX_145"></path>
<path d="M67970 505 c-69 -22 -167 -53 -217 -69 l-93 -28 0 -107 c0 -58 4
-112 9 -120 12 -19 34 -14 259 59 l188 60 -4 72 c-2 40 -7 96 -10 124 l-7 50
-125 -41z" fill="none" stroke="#9999F8" stroke-width="60px" class="NrigUzdX_146"></path>
<path d="M39927 431 c-3 -58 -8 -113 -11 -121 -5 -12 17 -23 106 -52 62 -20
123 -39 136 -43 22 -6 22 -6 22 119 l0 124 -82 27 c-46 15 -101 32 -124 40
l-41 13 -6 -107z" fill="none" stroke="#9999F8" stroke-width="60px" class="NrigUzdX_147"></path>
<path d="M43853 495 c-73 -22 -135 -43 -138 -47 -10 -10 50 -228 63 -228 4 0
55 16 114 36 l108 36 -1 76 c0 42 -4 98 -7 123 l-7 45 -132 -41z" fill="none" stroke="#9999F8" stroke-width="60px" class="NrigUzdX_148"></path>
<path d="M63896 426 c-3 -35 -13 -87 -22 -116 -8 -28 -14 -53 -12 -54 23 -15
281 -87 287 -80 15 17 40 234 27 234 -2 0 -62 18 -132 40 -71 22 -131 40 -135
40 -3 0 -9 -29 -13 -64z" fill="none" stroke="#9999F8" stroke-width="60px" class="NrigUzdX_149"></path>
<path d="M16340 347 l0 -125 33 -11 c30 -9 75 -21 140 -35 l27 -6 0 123 0 123
-85 22 c-46 12 -91 25 -100 28 -13 5 -15 -11 -15 -119z" fill="none" stroke="#9999F8" stroke-width="60px" class="NrigUzdX_150"></path>
<path d="M19639 466 c-3 -3 -61 -19 -129 -36 -69 -18 -126 -33 -128 -35 -1 -1
10 -53 25 -114 l28 -113 40 6 c22 4 75 16 119 28 l79 21 -7 66 c-3 36 -6 92
-6 124 0 50 -7 67 -21 53z" fill="none" stroke="#9999F8" stroke-width="60px" class="NrigUzdX_151"></path>
<path d="M40260 316 l0 -125 53 -15 c61 -18 223 -56 238 -56 6 0 9 46 7 122
l-3 122 -40 9 c-35 8 -190 49 -237 63 -17 5 -18 -5 -18 -120z" fill="none" stroke="#9999F8" stroke-width="60px" class="NrigUzdX_152"></path>
<path d="M43490 395 l-85 -22 -3 -123 -3 -122 38 6 c21 4 82 19 136 33 90 24
98 28 93 47 -4 12 -11 43 -16 69 -13 65 -46 137 -62 136 -7 0 -51 -11 -98 -24z" fill="none" stroke="#9999F8" stroke-width="60px" class="NrigUzdX_153"></path>
<path d="M16640 272 l0 -121 38 -11 c20 -6 105 -22 187 -35 83 -14 160 -28
173 -30 20 -5 22 -2 22 32 0 21 -6 58 -14 83 -8 25 -20 65 -28 90 -13 44 -14
45 -68 53 -30 4 -98 17 -150 28 -52 11 -110 23 -127 26 l-33 6 0 -121z" fill="none" stroke="#9999F8" stroke-width="60px" class="NrigUzdX_154"></path>
<path d="M19195 359 c-44 -9 -119 -22 -167 -29 -48 -7 -91 -16 -97 -20 -8 -4
-6 -30 4 -84 8 -43 15 -95 15 -115 l0 -37 139 22 c162 26 251 45 251 53 0 10
-48 185 -57 206 -8 20 -9 20 -88 4z" fill="none" stroke="#9999F8" stroke-width="60px" class="NrigUzdX_155"></path>
<path d="M64280 304 c-1 -44 -5 -98 -9 -122 l-8 -42 51 -15 c28 -8 94 -24 146
-35 52 -11 105 -22 118 -25 18 -5 22 -1 22 20 0 14 -7 42 -15 62 -8 19 -15 64
-15 100 0 42 -4 65 -12 67 -7 2 -62 16 -123 30 -60 15 -120 29 -132 32 -22 6
-23 4 -23 -72z" fill="none" stroke="#9999F8" stroke-width="60px" class="NrigUzdX_156"></path>
<path d="M67470 360 c-35 -10 -103 -26 -150 -36 -47 -9 -87 -19 -89 -21 -12
-9 88 -223 104 -223 3 0 54 12 115 26 l110 26 0 124 c0 93 -3 124 -12 123 -7
0 -42 -9 -78 -19z" fill="none" stroke="#9999F8" stroke-width="60px" class="NrigUzdX_157"></path>
<path d="M43269 346 c-4 -4 -156 -35 -257 -53 l-43 -8 46 -85 c25 -47 51 -98
58 -113 13 -31 2 -30 145 -1 l82 17 0 123 c0 97 -3 124 -13 124 -8 0 -16 -2
-18 -4z" fill="none" stroke="#9999F8" stroke-width="60px" class="NrigUzdX_158"></path>
<path d="M40660 215 c0 -69 1 -125 3 -125 1 0 83 -13 182 -30 98 -16 180 -28
181 -27 1 1 4 50 7 109 3 73 1 112 -7 121 -6 9 -48 20 -96 27 -47 7 -125 21
-174 31 -49 11 -91 19 -93 19 -2 0 -3 -56 -3 -125z" fill="none" stroke="#9999F8" stroke-width="60px" class="NrigUzdX_159"></path>
<path d="M17110 304 c0 -1 7 -18 15 -37 8 -20 15 -54 15 -75 0 -75 12 -131 29
-136 9 -2 46 -7 84 -11 l67 -7 0 121 c0 108 -2 121 -17 122 -10 0 -57 6 -105
13 -49 7 -88 11 -88 10z" fill="none" stroke="#9999F8" stroke-width="60px" class="NrigUzdX_160"></path>
<path d="M18660 278 c-41 -5 -76 -10 -77 -11 -1 -2 15 -54 35 -117 l37 -115
92 10 c51 6 94 13 96 15 2 3 -5 56 -16 118 l-20 112 -36 -1 c-20 -1 -70 -6
-111 -11z" fill="none" stroke="#9999F8" stroke-width="60px" class="NrigUzdX_161"></path>
<path d="M64650 274 c0 -8 5 -25 11 -36 6 -11 17 -59 25 -106 7 -47 17 -89 21
-92 7 -7 211 -40 241 -40 9 0 12 31 12 119 l0 119 -72 12 c-40 6 -105 18 -145
26 -90 18 -93 17 -93 -2z" fill="none" stroke="#9999F8" stroke-width="60px" class="NrigUzdX_162"></path>
<path d="M67089 276 c-3 -3 -36 -10 -74 -16 -39 -6 -83 -13 -98 -16 l-29 -6 7
-111 c4 -62 10 -115 14 -119 4 -4 74 3 156 17 82 14 150 25 152 25 2 0 -1 8
-7 18 -19 34 -60 142 -60 159 -1 34 -42 67 -61 49z" fill="none" stroke="#9999F8" stroke-width="60px" class="NrigUzdX_163"></path>
<path d="M17420 150 c0 -134 -3 -130 87 -130 l56 0 -6 112 c-4 61 -10 115 -14
119 -5 3 -34 9 -65 12 l-58 6 0 -119z" fill="none" stroke="#9999F8" stroke-width="60px" class="NrigUzdX_164"></path>
<path d="M42700 249 c-80 -10 -164 -21 -188 -25 -33 -4 -42 -9 -38 -21 3 -8 6
-58 6 -110 l0 -96 143 6 c120 5 334 31 345 42 2 2 -11 32 -30 66 -18 34 -40
83 -48 108 -8 26 -22 46 -30 47 -8 1 -80 -7 -160 -17z" fill="none" stroke="#9999F8" stroke-width="60px" class="NrigUzdX_165"></path>
<path d="M18375 254 c-27 -2 -88 -6 -134 -10 l-83 -6 7 -111 c4 -62 10 -115
14 -119 6 -7 362 10 370 18 2 2 -14 54 -35 116 -43 126 -34 118 -139 112z" fill="none" stroke="#9999F8" stroke-width="60px" class="NrigUzdX_166"></path>
<path d="M41116 145 c-4 -65 -4 -120 -1 -123 11 -11 120 -20 253 -21 l132 -1
0 108 0 108 -167 18 c-93 9 -177 20 -189 22 -20 5 -21 1 -28 -111z" fill="none" stroke="#9999F8" stroke-width="60px" class="NrigUzdX_167"></path>
<path d="M17643 136 c3 -65 8 -120 11 -123 3 -3 98 -8 212 -11 l206 -5 -5 29
c-3 16 -9 71 -13 122 l-6 92 -113 0 c-61 0 -154 3 -205 7 l-93 6 6 -117z" fill="none" stroke="#9999F8" stroke-width="60px" class="NrigUzdX_168"></path>
<path d="M65060 110 l0 -110 215 0 c241 0 222 -8 184 77 -10 24 -19 56 -19 73
0 22 -5 30 -17 30 -10 0 -92 9 -183 20 -91 11 -168 20 -172 20 -5 0 -8 -49 -8
-110z" fill="none" stroke="#9999F8" stroke-width="60px" class="NrigUzdX_169"></path>
<path d="M66562 197 c-95 -11 -171 -23 -170 -26 2 -3 21 -43 43 -88 l40 -83
163 0 162 0 -5 58 c-17 169 -15 162 -38 161 -12 -1 -100 -11 -195 -22z" fill="none" stroke="#9999F8" stroke-width="60px" class="NrigUzdX_170"></path>
<path d="M41600 106 l0 -106 165 0 c156 0 165 1 165 19 0 11 -10 32 -23 48
-34 42 -57 81 -57 96 0 27 -26 35 -137 42 l-113 8 0 -107z" fill="none" stroke="#9999F8" stroke-width="60px" class="NrigUzdX_171"></path>
<path d="M42077 200 l-129 -5 31 -39 c17 -21 31 -49 31 -62 0 -13 8 -39 17
-59 l17 -35 168 0 168 0 0 36 c0 19 -5 66 -11 105 l-12 69 -76 -2 c-42 -1
-134 -5 -204 -8z" fill="none" stroke="#9999F8" stroke-width="60px" class="NrigUzdX_172"></path>
<path d="M65540 159 c0 -8 4 -19 8 -24 11 -13 32 -87 32 -114 0 -20 4 -21 150
-21 l150 0 0 80 0 80 -63 0 c-35 0 -112 3 -170 7 -90 5 -107 4 -107 -8z" fill="none" stroke="#9999F8" stroke-width="60px" class="NrigUzdX_173"></path>
<path d="M66073 163 l-93 -4 0 -79 0 -80 185 0 c104 0 185 4 185 9 0 8 -17 45
-51 113 -5 10 -9 25 -9 33 0 16 8 16 -217 8z" fill="none" stroke="#9999F8" stroke-width="60px" class="NrigUzdX_174"></path>
</g>
<style data-made-with="vivus-instant">.NrigUzdX_0{stroke-dasharray:1163 1165;stroke-dashoffset:1164;animation:NrigUzdX_draw 32ms linear 0ms forwards;}.NrigUzdX_1{stroke-dasharray:1281 1283;stroke-dashoffset:1282;animation:NrigUzdX_draw 36ms linear 32ms forwards;}.NrigUzdX_2{stroke-dasharray:1509 1511;stroke-dashoffset:1510;animation:NrigUzdX_draw 42ms linear 69ms forwards;}.NrigUzdX_3{stroke-dasharray:1179 1181;stroke-dashoffset:1180;animation:NrigUzdX_draw 33ms linear 112ms forwards;}.NrigUzdX_4{stroke-dasharray:1355 1357;stroke-dashoffset:1356;animation:NrigUzdX_draw 38ms linear 145ms forwards;}.NrigUzdX_5{stroke-dasharray:1318 1320;stroke-dashoffset:1319;animation:NrigUzdX_draw 37ms linear 183ms forwards;}.NrigUzdX_6{stroke-dasharray:1448 1450;stroke-dashoffset:1449;animation:NrigUzdX_draw 41ms linear 221ms forwards;}.NrigUzdX_7{stroke-dasharray:1055 1057;stroke-dashoffset:1056;animation:NrigUzdX_draw 29ms linear 262ms forwards;}.NrigUzdX_8{stroke-dasharray:1172 1174;stroke-dashoffset:1173;animation:NrigUzdX_draw 33ms linear 292ms forwards;}.NrigUzdX_9{stroke-dasharray:1182 1184;stroke-dashoffset:1183;animation:NrigUzdX_draw 33ms linear 325ms forwards;}.NrigUzdX_10{stroke-dasharray:1352 1354;stroke-dashoffset:1353;animation:NrigUzdX_draw 38ms linear 359ms forwards;}.NrigUzdX_11{stroke-dasharray:1299 1301;stroke-dashoffset:1300;animation:NrigUzdX_draw 36ms linear 397ms forwards;}.NrigUzdX_12{stroke-dasharray:1357 1359;stroke-dashoffset:1358;animation:NrigUzdX_draw 38ms linear 434ms forwards;}.NrigUzdX_13{stroke-dasharray:1419 1421;stroke-dashoffset:1420;animation:NrigUzdX_draw 40ms linear 472ms forwards;}.NrigUzdX_14{stroke-dasharray:1255 1257;stroke-dashoffset:1256;animation:NrigUzdX_draw 35ms linear 513ms forwards;}.NrigUzdX_15{stroke-dasharray:1218 1220;stroke-dashoffset:1219;animation:NrigUzdX_draw 34ms linear 548ms forwards;}.NrigUzdX_16{stroke-dasharray:1195 1197;stroke-dashoffset:1196;animation:NrigUzdX_draw 33ms linear 583ms forwards;}.NrigUzdX_17{stroke-dasharray:1184 1186;stroke-dashoffset:1185;animation:NrigUzdX_draw 33ms linear 617ms forwards;}.NrigUzdX_18{stroke-dasharray:1302 1304;stroke-dashoffset:1303;animation:NrigUzdX_draw 36ms linear 650ms forwards;}.NrigUzdX_19{stroke-dasharray:1461 1463;stroke-dashoffset:1462;animation:NrigUzdX_draw 41ms linear 687ms forwards;}.NrigUzdX_20{stroke-dasharray:1108 1110;stroke-dashoffset:1109;animation:NrigUzdX_draw 31ms linear 729ms forwards;}.NrigUzdX_21{stroke-dasharray:1095 1097;stroke-dashoffset:1096;animation:NrigUzdX_draw 31ms linear 760ms forwards;}.NrigUzdX_22{stroke-dasharray:1068 1070;stroke-dashoffset:1069;animation:NrigUzdX_draw 30ms linear 791ms forwards;}.NrigUzdX_23{stroke-dasharray:1509 1511;stroke-dashoffset:1510;animation:NrigUzdX_draw 42ms linear 821ms forwards;}.NrigUzdX_24{stroke-dasharray:1280 1282;stroke-dashoffset:1281;animation:NrigUzdX_draw 36ms linear 864ms forwards;}.NrigUzdX_25{stroke-dasharray:983 985;stroke-dashoffset:984;animation:NrigUzdX_draw 27ms linear 900ms forwards;}.NrigUzdX_26{stroke-dasharray:894 896;stroke-dashoffset:895;animation:NrigUzdX_draw 25ms linear 928ms forwards;}.NrigUzdX_27{stroke-dasharray:1381 1383;stroke-dashoffset:1382;animation:NrigUzdX_draw 39ms linear 954ms forwards;}.NrigUzdX_28{stroke-dasharray:1024 1026;stroke-dashoffset:1025;animation:NrigUzdX_draw 29ms linear 993ms forwards;}.NrigUzdX_29{stroke-dasharray:1002 1004;stroke-dashoffset:1003;animation:NrigUzdX_draw 28ms linear 1022ms forwards;}.NrigUzdX_30{stroke-dasharray:1100 1102;stroke-dashoffset:1101;animation:NrigUzdX_draw 31ms linear 1050ms forwards;}.NrigUzdX_31{stroke-dasharray:1100 1102;stroke-dashoffset:1101;animation:NrigUzdX_draw 31ms linear 1082ms forwards;}.NrigUzdX_32{stroke-dasharray:879 881;stroke-dashoffset:880;animation:NrigUzdX_draw 24ms linear 1113ms forwards;}.NrigUzdX_33{stroke-dasharray:1127 1129;stroke-dashoffset:1128;animation:NrigUzdX_draw 31ms linear 1138ms forwards;}.NrigUzdX_34{stroke-dasharray:1101 1103;stroke-dashoffset:1102;animation:NrigUzdX_draw 31ms linear 1170ms forwards;}.NrigUzdX_35{stroke-dasharray:986 988;stroke-dashoffset:987;animation:NrigUzdX_draw 27ms linear 1201ms forwards;}.NrigUzdX_36{stroke-dasharray:1111 1113;stroke-dashoffset:1112;animation:NrigUzdX_draw 31ms linear 1229ms forwards;}.NrigUzdX_37{stroke-dasharray:1354 1356;stroke-dashoffset:1355;animation:NrigUzdX_draw 38ms linear 1260ms forwards;}.NrigUzdX_38{stroke-dasharray:1030 1032;stroke-dashoffset:1031;animation:NrigUzdX_draw 29ms linear 1299ms forwards;}.NrigUzdX_39{stroke-dasharray:1150 1152;stroke-dashoffset:1151;animation:NrigUzdX_draw 32ms linear 1328ms forwards;}.NrigUzdX_40{stroke-dasharray:1127 1129;stroke-dashoffset:1128;animation:NrigUzdX_draw 31ms linear 1361ms forwards;}.NrigUzdX_41{stroke-dasharray:960 962;stroke-dashoffset:961;animation:NrigUzdX_draw 27ms linear 1393ms forwards;}.NrigUzdX_42{stroke-dasharray:1281 1283;stroke-dashoffset:1282;animation:NrigUzdX_draw 36ms linear 1420ms forwards;}.NrigUzdX_43{stroke-dasharray:1554 1556;stroke-dashoffset:1555;animation:NrigUzdX_draw 44ms linear 1456ms forwards;}.NrigUzdX_44{stroke-dasharray:1417 1419;stroke-dashoffset:1418;animation:NrigUzdX_draw 40ms linear 1500ms forwards;}.NrigUzdX_45{stroke-dasharray:1216 1218;stroke-dashoffset:1217;animation:NrigUzdX_draw 34ms linear 1540ms forwards;}.NrigUzdX_46{stroke-dasharray:1244 1246;stroke-dashoffset:1245;animation:NrigUzdX_draw 35ms linear 1575ms forwards;}.NrigUzdX_47{stroke-dasharray:1190 1192;stroke-dashoffset:1191;animation:NrigUzdX_draw 33ms linear 1610ms forwards;}.NrigUzdX_48{stroke-dasharray:1445 1447;stroke-dashoffset:1446;animation:NrigUzdX_draw 40ms linear 1644ms forwards;}.NrigUzdX_49{stroke-dasharray:959 961;stroke-dashoffset:960;animation:NrigUzdX_draw 27ms linear 1685ms forwards;}.NrigUzdX_50{stroke-dasharray:1568 1570;stroke-dashoffset:1569;animation:NrigUzdX_draw 44ms linear 1712ms forwards;}.NrigUzdX_51{stroke-dasharray:955 957;stroke-dashoffset:956;animation:NrigUzdX_draw 27ms linear 1757ms forwards;}.NrigUzdX_52{stroke-dasharray:1415 1417;stroke-dashoffset:1416;animation:NrigUzdX_draw 40ms linear 1784ms forwards;}.NrigUzdX_53{stroke-dasharray:1015 1017;stroke-dashoffset:1016;animation:NrigUzdX_draw 28ms linear 1824ms forwards;}.NrigUzdX_54{stroke-dasharray:1141 1143;stroke-dashoffset:1142;animation:NrigUzdX_draw 32ms linear 1853ms forwards;}.NrigUzdX_55{stroke-dasharray:1019 1021;stroke-dashoffset:1020;animation:NrigUzdX_draw 28ms linear 1885ms forwards;}.NrigUzdX_56{stroke-dasharray:1245 1247;stroke-dashoffset:1246;animation:NrigUzdX_draw 35ms linear 1914ms forwards;}.NrigUzdX_57{stroke-dasharray:1175 1177;stroke-dashoffset:1176;animation:NrigUzdX_draw 33ms linear 1949ms forwards;}.NrigUzdX_58{stroke-dasharray:1797 1799;stroke-dashoffset:1798;animation:NrigUzdX_draw 50ms linear 1983ms forwards;}.NrigUzdX_59{stroke-dasharray:1205 1207;stroke-dashoffset:1206;animation:NrigUzdX_draw 34ms linear 2033ms forwards;}.NrigUzdX_60{stroke-dasharray:1015 1017;stroke-dashoffset:1016;animation:NrigUzdX_draw 28ms linear 2068ms forwards;}.NrigUzdX_61{stroke-dasharray:989 991;stroke-dashoffset:990;animation:NrigUzdX_draw 28ms linear 2096ms forwards;}.NrigUzdX_62{stroke-dasharray:1296 1298;stroke-dashoffset:1297;animation:NrigUzdX_draw 36ms linear 2124ms forwards;}.NrigUzdX_63{stroke-dasharray:1188 1190;stroke-dashoffset:1189;animation:NrigUzdX_draw 33ms linear 2161ms forwards;}.NrigUzdX_64{stroke-dasharray:1323 1325;stroke-dashoffset:1324;animation:NrigUzdX_draw 37ms linear 2195ms forwards;}.NrigUzdX_65{stroke-dasharray:1213 1215;stroke-dashoffset:1214;animation:NrigUzdX_draw 34ms linear 2232ms forwards;}.NrigUzdX_66{stroke-dasharray:1058 1060;stroke-dashoffset:1059;animation:NrigUzdX_draw 30ms linear 2267ms forwards;}.NrigUzdX_67{stroke-dasharray:1109 1111;stroke-dashoffset:1110;animation:NrigUzdX_draw 31ms linear 2297ms forwards;}.NrigUzdX_68{stroke-dasharray:972 974;stroke-dashoffset:973;animation:NrigUzdX_draw 27ms linear 2328ms forwards;}.NrigUzdX_69{stroke-dasharray:1288 1290;stroke-dashoffset:1289;animation:NrigUzdX_draw 36ms linear 2356ms forwards;}.NrigUzdX_70{stroke-dasharray:1337 1339;stroke-dashoffset:1338;animation:NrigUzdX_draw 37ms linear 2392ms forwards;}.NrigUzdX_71{stroke-dasharray:1040 1042;stroke-dashoffset:1041;animation:NrigUzdX_draw 29ms linear 2430ms forwards;}.NrigUzdX_72{stroke-dasharray:1175 1177;stroke-dashoffset:1176;animation:NrigUzdX_draw 33ms linear 2460ms forwards;}.NrigUzdX_73{stroke-dasharray:917 919;stroke-dashoffset:918;animation:NrigUzdX_draw 26ms linear 2493ms forwards;}.NrigUzdX_74{stroke-dasharray:987 989;stroke-dashoffset:988;animation:NrigUzdX_draw 28ms linear 2519ms forwards;}.NrigUzdX_75{stroke-dasharray:1455 1457;stroke-dashoffset:1456;animation:NrigUzdX_draw 41ms linear 2547ms forwards;}.NrigUzdX_76{stroke-dasharray:931 933;stroke-dashoffset:932;animation:NrigUzdX_draw 26ms linear 2588ms forwards;}.NrigUzdX_77{stroke-dasharray:1344 1346;stroke-dashoffset:1345;animation:NrigUzdX_draw 38ms linear 2615ms forwards;}.NrigUzdX_78{stroke-dasharray:1005 1007;stroke-dashoffset:1006;animation:NrigUzdX_draw 28ms linear 2653ms forwards;}.NrigUzdX_79{stroke-dasharray:641 643;stroke-dashoffset:642;animation:NrigUzdX_draw 18ms linear 2682ms forwards;}.NrigUzdX_80{stroke-dasharray:1210 1212;stroke-dashoffset:1211;animation:NrigUzdX_draw 34ms linear 2700ms forwards;}.NrigUzdX_81{stroke-dasharray:1160 1162;stroke-dashoffset:1161;animation:NrigUzdX_draw 32ms linear 2734ms forwards;}.NrigUzdX_82{stroke-dasharray:1017 1019;stroke-dashoffset:1018;animation:NrigUzdX_draw 28ms linear 2767ms forwards;}.NrigUzdX_83{stroke-dasharray:1067 1069;stroke-dashoffset:1068;animation:NrigUzdX_draw 30ms linear 2796ms forwards;}.NrigUzdX_84{stroke-dasharray:1243 1245;stroke-dashoffset:1244;animation:NrigUzdX_draw 35ms linear 2826ms forwards;}.NrigUzdX_85{stroke-dasharray:1079 1081;stroke-dashoffset:1080;animation:NrigUzdX_draw 30ms linear 2861ms forwards;}.NrigUzdX_86{stroke-dasharray:1029 1031;stroke-dashoffset:1030;animation:NrigUzdX_draw 29ms linear 2892ms forwards;}.NrigUzdX_87{stroke-dasharray:1233 1235;stroke-dashoffset:1234;animation:NrigUzdX_draw 34ms linear 2921ms forwards;}.NrigUzdX_88{stroke-dasharray:1200 1202;stroke-dashoffset:1201;animation:NrigUzdX_draw 34ms linear 2956ms forwards;}.NrigUzdX_89{stroke-dasharray:1058 1060;stroke-dashoffset:1059;animation:NrigUzdX_draw 30ms linear 2990ms forwards;}.NrigUzdX_90{stroke-dasharray:1479 1481;stroke-dashoffset:1480;animation:NrigUzdX_draw 41ms linear 3020ms forwards;}.NrigUzdX_91{stroke-dasharray:1303 1305;stroke-dashoffset:1304;animation:NrigUzdX_draw 36ms linear 3062ms forwards;}.NrigUzdX_92{stroke-dasharray:959 961;stroke-dashoffset:960;animation:NrigUzdX_draw 27ms linear 3099ms forwards;}.NrigUzdX_93{stroke-dasharray:1039 1041;stroke-dashoffset:1040;animation:NrigUzdX_draw 29ms linear 3126ms forwards;}.NrigUzdX_94{stroke-dasharray:1339 1341;stroke-dashoffset:1340;animation:NrigUzdX_draw 37ms linear 3156ms forwards;}.NrigUzdX_95{stroke-dasharray:1391 1393;stroke-dashoffset:1392;animation:NrigUzdX_draw 39ms linear 3194ms forwards;}.NrigUzdX_96{stroke-dasharray:1029 1031;stroke-dashoffset:1030;animation:NrigUzdX_draw 29ms linear 3233ms forwards;}.NrigUzdX_97{stroke-dasharray:1539 1541;stroke-dashoffset:1540;animation:NrigUzdX_draw 43ms linear 3262ms forwards;}.NrigUzdX_98{stroke-dasharray:1166 1168;stroke-dashoffset:1167;animation:NrigUzdX_draw 33ms linear 3306ms forwards;}.NrigUzdX_99{stroke-dasharray:1377 1379;stroke-dashoffset:1378;animation:NrigUzdX_draw 39ms linear 3339ms forwards;}.NrigUzdX_100{stroke-dasharray:882 884;stroke-dashoffset:883;animation:NrigUzdX_draw 25ms linear 3378ms forwards;}.NrigUzdX_101{stroke-dasharray:1029 1031;stroke-dashoffset:1030;animation:NrigUzdX_draw 29ms linear 3403ms forwards;}.NrigUzdX_102{stroke-dasharray:1086 1088;stroke-dashoffset:1087;animation:NrigUzdX_draw 30ms linear 3432ms forwards;}.NrigUzdX_103{stroke-dasharray:743 745;stroke-dashoffset:744;animation:NrigUzdX_draw 21ms linear 3463ms forwards;}.NrigUzdX_104{stroke-dasharray:991 993;stroke-dashoffset:992;animation:NrigUzdX_draw 28ms linear 3484ms forwards;}.NrigUzdX_105{stroke-dasharray:1385 1387;stroke-dashoffset:1386;animation:NrigUzdX_draw 39ms linear 3512ms forwards;}.NrigUzdX_106{stroke-dasharray:1370 1372;stroke-dashoffset:1371;animation:NrigUzdX_draw 38ms linear 3552ms forwards;}.NrigUzdX_107{stroke-dasharray:980 982;stroke-dashoffset:981;animation:NrigUzdX_draw 27ms linear 3590ms forwards;}.NrigUzdX_108{stroke-dasharray:1046 1048;stroke-dashoffset:1047;animation:NrigUzdX_draw 29ms linear 3618ms forwards;}.NrigUzdX_109{stroke-dasharray:955 957;stroke-dashoffset:956;animation:NrigUzdX_draw 27ms linear 3648ms forwards;}.NrigUzdX_110{stroke-dasharray:1129 1131;stroke-dashoffset:1130;animation:NrigUzdX_draw 32ms linear 3675ms forwards;}.NrigUzdX_111{stroke-dasharray:891 893;stroke-dashoffset:892;animation:NrigUzdX_draw 25ms linear 3707ms forwards;}.NrigUzdX_112{stroke-dasharray:1070 1072;stroke-dashoffset:1071;animation:NrigUzdX_draw 30ms linear 3732ms forwards;}.NrigUzdX_113{stroke-dasharray:1300 1302;stroke-dashoffset:1301;animation:NrigUzdX_draw 36ms linear 3763ms forwards;}.NrigUzdX_114{stroke-dasharray:1142 1144;stroke-dashoffset:1143;animation:NrigUzdX_draw 32ms linear 3800ms forwards;}.NrigUzdX_115{stroke-dasharray:818 820;stroke-dashoffset:819;animation:NrigUzdX_draw 23ms linear 3832ms forwards;}.NrigUzdX_116{stroke-dasharray:1687 1689;stroke-dashoffset:1688;animation:NrigUzdX_draw 47ms linear 3855ms forwards;}.NrigUzdX_117{stroke-dasharray:1313 1315;stroke-dashoffset:1314;animation:NrigUzdX_draw 37ms linear 3903ms forwards;}.NrigUzdX_118{stroke-dasharray:1044 1046;stroke-dashoffset:1045;animation:NrigUzdX_draw 29ms linear 3940ms forwards;}.NrigUzdX_119{stroke-dasharray:1111 1113;stroke-dashoffset:1112;animation:NrigUzdX_draw 31ms linear 3970ms forwards;}.NrigUzdX_120{stroke-dasharray:1342 1344;stroke-dashoffset:1343;animation:NrigUzdX_draw 38ms linear 4001ms forwards;}.NrigUzdX_121{stroke-dasharray:1264 1266;stroke-dashoffset:1265;animation:NrigUzdX_draw 35ms linear 4039ms forwards;}.NrigUzdX_122{stroke-dasharray:938 940;stroke-dashoffset:939;animation:NrigUzdX_draw 26ms linear 4075ms forwards;}.NrigUzdX_123{stroke-dasharray:1149 1151;stroke-dashoffset:1150;animation:NrigUzdX_draw 32ms linear 4102ms forwards;}.NrigUzdX_124{stroke-dasharray:923 925;stroke-dashoffset:924;animation:NrigUzdX_draw 26ms linear 4134ms forwards;}.NrigUzdX_125{stroke-dasharray:1247 1249;stroke-dashoffset:1248;animation:NrigUzdX_draw 35ms linear 4161ms forwards;}.NrigUzdX_126{stroke-dasharray:867 869;stroke-dashoffset:868;animation:NrigUzdX_draw 24ms linear 4196ms forwards;}.NrigUzdX_127{stroke-dasharray:1000 1002;stroke-dashoffset:1001;animation:NrigUzdX_draw 28ms linear 4221ms forwards;}.NrigUzdX_128{stroke-dasharray:1018 1020;stroke-dashoffset:1019;animation:NrigUzdX_draw 28ms linear 4249ms forwards;}.NrigUzdX_129{stroke-dasharray:983 985;stroke-dashoffset:984;animation:NrigUzdX_draw 27ms linear 4278ms forwards;}.NrigUzdX_130{stroke-dasharray:1232 1234;stroke-dashoffset:1233;animation:NrigUzdX_draw 34ms linear 4306ms forwards;}.NrigUzdX_131{stroke-dasharray:1048 1050;stroke-dashoffset:1049;animation:NrigUzdX_draw 29ms linear 4341ms forwards;}.NrigUzdX_132{stroke-dasharray:1278 1280;stroke-dashoffset:1279;animation:NrigUzdX_draw 36ms linear 4370ms forwards;}.NrigUzdX_133{stroke-dasharray:1211 1213;stroke-dashoffset:1212;animation:NrigUzdX_draw 34ms linear 4407ms forwards;}.NrigUzdX_134{stroke-dasharray:1278 1280;stroke-dashoffset:1279;animation:NrigUzdX_draw 36ms linear 4441ms forwards;}.NrigUzdX_135{stroke-dasharray:1106 1108;stroke-dashoffset:1107;animation:NrigUzdX_draw 31ms linear 4477ms forwards;}.NrigUzdX_136{stroke-dasharray:1034 1036;stroke-dashoffset:1035;animation:NrigUzdX_draw 29ms linear 4509ms forwards;}.NrigUzdX_137{stroke-dasharray:1047 1049;stroke-dashoffset:1048;animation:NrigUzdX_draw 29ms linear 4538ms forwards;}.NrigUzdX_138{stroke-dasharray:968 970;stroke-dashoffset:969;animation:NrigUzdX_draw 27ms linear 4568ms forwards;}.NrigUzdX_139{stroke-dasharray:949 951;stroke-dashoffset:950;animation:NrigUzdX_draw 26ms linear 4595ms forwards;}.NrigUzdX_140{stroke-dasharray:1131 1133;stroke-dashoffset:1132;animation:NrigUzdX_draw 32ms linear 4622ms forwards;}.NrigUzdX_141{stroke-dasharray:1076 1078;stroke-dashoffset:1077;animation:NrigUzdX_draw 30ms linear 4654ms forwards;}.NrigUzdX_142{stroke-dasharray:951 953;stroke-dashoffset:952;animation:NrigUzdX_draw 26ms linear 4685ms forwards;}.NrigUzdX_143{stroke-dasharray:1093 1095;stroke-dashoffset:1094;animation:NrigUzdX_draw 31ms linear 4712ms forwards;}.NrigUzdX_144{stroke-dasharray:1203 1205;stroke-dashoffset:1204;animation:NrigUzdX_draw 34ms linear 4743ms forwards;}.NrigUzdX_145{stroke-dasharray:1134 1136;stroke-dashoffset:1135;animation:NrigUzdX_draw 32ms linear 4777ms forwards;}.NrigUzdX_146{stroke-dasharray:1401 1403;stroke-dashoffset:1402;animation:NrigUzdX_draw 39ms linear 4809ms forwards;}.NrigUzdX_147{stroke-dasharray:1014 1016;stroke-dashoffset:1015;animation:NrigUzdX_draw 28ms linear 4849ms forwards;}.NrigUzdX_148{stroke-dasharray:1002 1004;stroke-dashoffset:1003;animation:NrigUzdX_draw 28ms linear 4877ms forwards;}.NrigUzdX_149{stroke-dasharray:1056 1058;stroke-dashoffset:1057;animation:NrigUzdX_draw 29ms linear 4906ms forwards;}.NrigUzdX_150{stroke-dasharray:897 899;stroke-dashoffset:898;animation:NrigUzdX_draw 25ms linear 4936ms forwards;}.NrigUzdX_151{stroke-dasharray:1007 1009;stroke-dashoffset:1008;animation:NrigUzdX_draw 28ms linear 4961ms forwards;}.NrigUzdX_152{stroke-dasharray:1088 1090;stroke-dashoffset:1089;animation:NrigUzdX_draw 30ms linear 4990ms forwards;}.NrigUzdX_153{stroke-dasharray:950 952;stroke-dashoffset:951;animation:NrigUzdX_draw 26ms linear 5021ms forwards;}.NrigUzdX_154{stroke-dasharray:1290 1292;stroke-dashoffset:1291;animation:NrigUzdX_draw 36ms linear 5048ms forwards;}.NrigUzdX_155{stroke-dasharray:1218 1220;stroke-dashoffset:1219;animation:NrigUzdX_draw 34ms linear 5084ms forwards;}.NrigUzdX_156{stroke-dasharray:1118 1120;stroke-dashoffset:1119;animation:NrigUzdX_draw 31ms linear 5119ms forwards;}.NrigUzdX_157{stroke-dasharray:1057 1059;stroke-dashoffset:1058;animation:NrigUzdX_draw 29ms linear 5151ms forwards;}.NrigUzdX_158{stroke-dasharray:1044 1046;stroke-dashoffset:1045;animation:NrigUzdX_draw 29ms linear 5181ms forwards;}.NrigUzdX_159{stroke-dasharray:1222 1224;stroke-dashoffset:1223;animation:NrigUzdX_draw 34ms linear 5210ms forwards;}.NrigUzdX_160{stroke-dasharray:857 859;stroke-dashoffset:858;animation:NrigUzdX_draw 24ms linear 5245ms forwards;}.NrigUzdX_161{stroke-dasharray:892 894;stroke-dashoffset:893;animation:NrigUzdX_draw 25ms linear 5269ms forwards;}.NrigUzdX_162{stroke-dasharray:1053 1055;stroke-dashoffset:1054;animation:NrigUzdX_draw 29ms linear 5294ms forwards;}.NrigUzdX_163{stroke-dasharray:1031 1033;stroke-dashoffset:1032;animation:NrigUzdX_draw 29ms linear 5324ms forwards;}.NrigUzdX_164{stroke-dasharray:731 733;stroke-dashoffset:732;animation:NrigUzdX_draw 20ms linear 5354ms forwards;}.NrigUzdX_165{stroke-dasharray:1347 1349;stroke-dashoffset:1348;animation:NrigUzdX_draw 38ms linear 5374ms forwards;}.NrigUzdX_166{stroke-dasharray:1153 1155;stroke-dashoffset:1154;animation:NrigUzdX_draw 32ms linear 5412ms forwards;}.NrigUzdX_167{stroke-dasharray:1211 1213;stroke-dashoffset:1212;animation:NrigUzdX_draw 34ms linear 5445ms forwards;}.NrigUzdX_168{stroke-dasharray:1316 1318;stroke-dashoffset:1317;animation:NrigUzdX_draw 37ms linear 5480ms forwards;}.NrigUzdX_169{stroke-dasharray:1186 1188;stroke-dashoffset:1187;animation:NrigUzdX_draw 33ms linear 5517ms forwards;}.NrigUzdX_170{stroke-dasharray:1119 1121;stroke-dashoffset:1120;animation:NrigUzdX_draw 31ms linear 5551ms forwards;}.NrigUzdX_171{stroke-dasharray:986 988;stroke-dashoffset:987;animation:NrigUzdX_draw 27ms linear 5582ms forwards;}.NrigUzdX_172{stroke-dasharray:1178 1180;stroke-dashoffset:1179;animation:NrigUzdX_draw 33ms linear 5610ms forwards;}.NrigUzdX_173{stroke-dasharray:962 964;stroke-dashoffset:963;animation:NrigUzdX_draw 27ms linear 5644ms forwards;}.NrigUzdX_174{stroke-dasharray:1007 1009;stroke-dashoffset:1008;animation:NrigUzdX_draw 28ms linear 5671ms forwards;}@keyframes NrigUzdX_draw{100%{stroke-dashoffset:0;}}@keyframes NrigUzdX_fade{0%{stroke-opacity:1;}95.95959595959596%{stroke-opacity:1;}100%{stroke-opacity:0;}}</style></svg>
