<!--?xml version="1.0" standalone="no"?-->

<svg version="1.0" xmlns="http://www.w3.org/2000/svg" width="1359.000000pt" height="158.000000pt" viewBox="0 0 1359.000000 158.000000" preserveAspectRatio="xMidYMid meet" class="" style="">
<metadata>
Created by potrace 1.15, written by Peter Selinger 2001-2017
</metadata>
<g transform="translate(0.000000,158.000000) scale(0.100000,-0.100000)" fill="none" stroke="none">
    
    
<path d="M2111 1549 c-121 -16 -427 -88 -462 -109 -12 -8 -11 -12 3 -27 17
-16 22 -15 110 10 236 67 391 89 592 85 144 -3 149 -2 157 18 7 19 3 22 -38
28 -62 8 -283 5 -362 -5z" fill="none" stroke="#9999F8" stroke-width="60px" class="upImFCwi_0"></path>
<path d="M6495 1553 c-139 -11 -391 -50 -444 -68 -10 -4 -7 -11 11 -24 23 -18
28 -19 93 -5 372 78 683 65 1006 -42 108 -36 112 -37 126 -19 17 24 18 23
-118 69 -216 72 -472 106 -674 89z" fill="none" stroke="#9999F8" stroke-width="60px" class="upImFCwi_1"></path>
<path d="M2600 1506 c0 -18 5 -26 18 -26 64 -1 406 -143 561 -233 57 -34 64
-36 88 -23 l26 13 -74 43 c-178 105 -460 223 -581 245 -36 7 -38 6 -38 -19z" fill="none" stroke="#9999F8" stroke-width="60px" class="upImFCwi_2"></path>
<path d="M12290 1523 c-284 -29 -785 -105 -802 -121 -4 -4 -1 -15 7 -25 13
-18 21 -17 217 17 375 66 508 80 773 81 257 0 324 -8 448 -52 223 -80 347
-220 539 -610 55 -112 104 -203 109 -203 5 0 9 18 9 40 0 30 -23 84 -95 227
-114 227 -176 323 -269 417 -169 172 -375 238 -731 234 -93 -1 -186 -3 -205
-5z" fill="none" stroke="#9999F8" stroke-width="60px" class="upImFCwi_3"></path>
<path d="M5760 1404 c-145 -46 -535 -186 -578 -208 -20 -10 -21 -14 -9 -31 14
-18 22 -15 203 52 151 57 345 122 562 189 16 5 -2 44 -21 44 -7 -1 -77 -21
-157 -46z" fill="none" stroke="#9999F8" stroke-width="60px" class="upImFCwi_4"></path>
<path d="M1365 1341 c-184 -70 -392 -154 -433 -175 -22 -12 -22 -12 -4 -29 18
-16 25 -15 143 34 68 29 205 83 304 120 164 62 180 70 183 93 2 15 0 26 -5 26
-4 -1 -89 -31 -188 -69z" fill="none" stroke="#9999F8" stroke-width="60px" class="upImFCwi_5"></path>
<path d="M11140 1334 c-354 -75 -708 -157 -722 -165 -10 -7 -10 -12 4 -25 16
-16 29 -15 225 30 265 60 717 156 738 156 14 0 14 3 -2 25 -10 13 -22 24 -28
24 -5 0 -102 -20 -215 -45z" fill="none" stroke="#9999F8" stroke-width="60px" class="upImFCwi_6"></path>
<path d="M7391 1348 c-7 -11 -11 -21 -9 -23 2 -1 40 -21 84 -43 177 -89 407
-236 699 -447 105 -76 195 -139 201 -142 9 -3 29 37 21 43 -1 1 -76 55 -167
121 -302 219 -546 376 -729 468 -85 42 -88 43 -100 23z" fill="none" stroke="#9999F8" stroke-width="60px" class="upImFCwi_7"></path>
<path d="M3373 1160 l-22 -17 39 -22 c21 -12 170 -109 331 -216 161 -107 296
-192 301 -189 4 3 8 14 8 25 0 14 -69 65 -267 197 -383 253 -365 243 -390 222z" fill="none" stroke="#9999F8" stroke-width="60px" class="upImFCwi_8"></path>
<path d="M4700 996 c-358 -154 -561 -244 -567 -250 -2 -2 -8 -17 -13 -35 l-9
-31 31 16 c43 22 582 258 776 339 141 59 187 85 153 85 -5 0 -11 6 -13 14 -2
10 -98 -27 -358 -138z" fill="none" stroke="#9999F8" stroke-width="60px" class="upImFCwi_9"></path>
<path d="M9844 1038 c-454 -109 -461 -111 -456 -135 2 -12 7 -23 10 -23 3 0
148 34 321 76 174 41 382 91 464 110 81 20 147 39 147 44 0 15 -12 40 -19 39
-3 0 -213 -51 -467 -111z" fill="none" stroke="#9999F8" stroke-width="60px" class="upImFCwi_10"></path>
<path d="M608 1027 c-115 -50 -208 -96 -208 -103 0 -33 45 -22 227 57 103 45
191 84 194 88 3 3 3 16 0 27 -6 21 -15 18 -213 -69z" fill="none" stroke="#9999F8" stroke-width="60px" class="upImFCwi_11"></path>
<path d="M9255 895 c-5 -2 -180 -45 -387 -95 -369 -90 -377 -92 -386 -119
l-10 -28 177 43 c97 24 282 69 413 100 236 57 236 57 225 81 -10 23 -13 25
-32 18z" fill="none" stroke="#9999F8" stroke-width="60px" class="upImFCwi_12"></path>
<path d="M133 818 c-116 -53 -133 -64 -133 -84 0 -13 3 -24 8 -24 4 0 75 30
159 67 143 64 151 69 136 85 -9 10 -21 18 -27 17 -6 0 -71 -28 -143 -61z" fill="none" stroke="#9999F8" stroke-width="60px" class="upImFCwi_13"></path>
</g>
<style data-made-with="vivus-instant">.upImFCwi_0{stroke-dasharray:1813 1815;stroke-dashoffset:1814;}.start .upImFCwi_0{animation:upImFCwi_draw 369ms linear 0ms forwards;}.upImFCwi_1{stroke-dasharray:2577 2579;stroke-dashoffset:2578;}.start .upImFCwi_1{animation:upImFCwi_draw 525ms linear 369ms forwards;}.upImFCwi_2{stroke-dasharray:1546 1548;stroke-dashoffset:1547;}.start .upImFCwi_2{animation:upImFCwi_draw 315ms linear 895ms forwards;}.upImFCwi_3{stroke-dasharray:5149 5151;stroke-dashoffset:5150;}.start .upImFCwi_3{animation:upImFCwi_draw 1050ms linear 1211ms forwards;}.upImFCwi_4{stroke-dasharray:1689 1691;stroke-dashoffset:1690;}.start .upImFCwi_4{animation:upImFCwi_draw 344ms linear 2261ms forwards;}.upImFCwi_5{stroke-dasharray:1430 1432;stroke-dashoffset:1431;}.start .upImFCwi_5{animation:upImFCwi_draw 291ms linear 2605ms forwards;}.upImFCwi_6{stroke-dasharray:2053 2055;stroke-dashoffset:2054;}.start .upImFCwi_6{animation:upImFCwi_draw 418ms linear 2897ms forwards;}.upImFCwi_7{stroke-dasharray:2436 2438;stroke-dashoffset:2437;}.start .upImFCwi_7{animation:upImFCwi_draw 496ms linear 3316ms forwards;}.upImFCwi_8{stroke-dasharray:1645 1647;stroke-dashoffset:1646;}.start .upImFCwi_8{animation:upImFCwi_draw 335ms linear 3813ms forwards;}.upImFCwi_9{stroke-dasharray:2174 2176;stroke-dashoffset:2175;}.start .upImFCwi_9{animation:upImFCwi_draw 443ms linear 4149ms forwards;}.upImFCwi_10{stroke-dasharray:1998 2000;stroke-dashoffset:1999;}.start .upImFCwi_10{animation:upImFCwi_draw 407ms linear 4592ms forwards;}.upImFCwi_11{stroke-dasharray:960 962;stroke-dashoffset:961;}.start .upImFCwi_11{animation:upImFCwi_draw 195ms linear 5000ms forwards;}.upImFCwi_12{stroke-dasharray:1744 1746;stroke-dashoffset:1745;}.start .upImFCwi_12{animation:upImFCwi_draw 355ms linear 5196ms forwards;}.upImFCwi_13{stroke-dasharray:724 726;stroke-dashoffset:725;}.start .upImFCwi_13{animation:upImFCwi_draw 147ms linear 5552ms forwards;}@keyframes upImFCwi_draw{100%{stroke-dashoffset:0;}}@keyframes upImFCwi_fade{0%{stroke-opacity:1;}95.95959595959596%{stroke-opacity:1;}100%{stroke-opacity:0;}}</style></svg>
